<svg width="906" height="370" viewBox="0 0 906 370" fill="none" xmlns="http://www.w3.org/2000/svg">
<path d="M804.472 299C804.312 299 804.184 298.952 804.088 298.856C803.992 298.76 803.944 298.632 803.944 298.472V287.048C803.944 286.888 803.992 286.76 804.088 286.664C804.184 286.568 804.312 286.52 804.472 286.52H813.352C813.512 286.52 813.64 286.568 813.736 286.664C813.832 286.76 813.88 286.888 813.88 287.048V298.472C813.88 298.632 813.832 298.76 813.736 298.856C813.64 298.952 813.512 299 813.352 299H812.944C812.784 299 812.656 298.952 812.56 298.856C812.464 298.76 812.416 298.632 812.416 298.472V287.912H805.408V298.472C805.408 298.632 805.36 298.76 805.264 298.856C805.168 298.952 805.04 299 804.88 299H804.472ZM818.324 303.56C818.164 303.56 818.036 303.512 817.94 303.416C817.844 303.32 817.796 303.192 817.796 303.032V287.048C817.796 286.888 817.844 286.76 817.94 286.664C818.036 286.568 818.164 286.52 818.324 286.52H818.732C818.892 286.52 819.02 286.568 819.116 286.664C819.212 286.76 819.26 286.888 819.26 287.048V288.176C819.66 287.632 820.18 287.184 820.82 286.832C821.476 286.464 822.3 286.28 823.292 286.28C824.236 286.28 825.028 286.448 825.668 286.784C826.308 287.104 826.828 287.536 827.228 288.08C827.628 288.624 827.924 289.232 828.116 289.904C828.308 290.576 828.412 291.264 828.428 291.968C828.444 292.208 828.452 292.472 828.452 292.76C828.452 293.048 828.444 293.312 828.428 293.552C828.412 294.256 828.308 294.944 828.116 295.616C827.924 296.288 827.628 296.896 827.228 297.44C826.828 297.984 826.308 298.424 825.668 298.76C825.028 299.08 824.236 299.24 823.292 299.24C822.3 299.24 821.476 299.056 820.82 298.688C820.18 298.32 819.66 297.872 819.26 297.344V303.032C819.26 303.192 819.212 303.32 819.116 303.416C819.02 303.512 818.892 303.56 818.732 303.56H818.324ZM823.148 297.848C824.092 297.848 824.836 297.64 825.38 297.224C825.924 296.808 826.316 296.264 826.556 295.592C826.796 294.92 826.932 294.2 826.964 293.432C826.98 292.984 826.98 292.536 826.964 292.088C826.932 291.32 826.796 290.6 826.556 289.928C826.316 289.256 825.924 288.712 825.38 288.296C824.836 287.88 824.092 287.672 823.148 287.672C822.236 287.672 821.5 287.888 820.94 288.32C820.38 288.752 819.964 289.296 819.692 289.952C819.436 290.592 819.292 291.24 819.26 291.896C819.244 292.136 819.236 292.448 819.236 292.832C819.236 293.216 819.244 293.528 819.26 293.768C819.276 294.408 819.42 295.04 819.692 295.664C819.98 296.288 820.404 296.808 820.964 297.224C821.54 297.64 822.268 297.848 823.148 297.848ZM836.469 299.24C835.317 299.24 834.349 299 833.565 298.52C832.797 298.04 832.205 297.384 831.789 296.552C831.389 295.72 831.173 294.792 831.141 293.768C831.125 293.528 831.117 293.192 831.117 292.76C831.117 292.328 831.125 291.992 831.141 291.752C831.173 290.712 831.389 289.784 831.789 288.968C832.205 288.136 832.797 287.48 833.565 287C834.349 286.52 835.317 286.28 836.469 286.28C837.621 286.28 838.581 286.52 839.349 287C840.133 287.48 840.725 288.136 841.125 288.968C841.541 289.784 841.765 290.712 841.797 291.752C841.813 291.992 841.821 292.328 841.821 292.76C841.821 293.192 841.813 293.528 841.797 293.768C841.765 294.792 841.541 295.72 841.125 296.552C840.725 297.384 840.133 298.04 839.349 298.52C838.581 299 837.621 299.24 836.469 299.24ZM836.469 297.848C837.589 297.848 838.501 297.488 839.205 296.768C839.909 296.048 840.285 295.008 840.333 293.648C840.349 293.408 840.357 293.112 840.357 292.76C840.357 292.408 840.349 292.112 840.333 291.872C840.285 290.496 839.909 289.456 839.205 288.752C838.501 288.032 837.589 287.672 836.469 287.672C835.349 287.672 834.437 288.032 833.733 288.752C833.029 289.456 832.653 290.496 832.605 291.872C832.589 292.112 832.581 292.408 832.581 292.76C832.581 293.112 832.589 293.408 832.605 293.648C832.653 295.008 833.029 296.048 833.733 296.768C834.437 297.488 835.349 297.848 836.469 297.848ZM845.628 299C845.468 299 845.34 298.952 845.244 298.856C845.148 298.76 845.1 298.632 845.1 298.472V287.048C845.1 286.888 845.148 286.76 845.244 286.664C845.34 286.568 845.468 286.52 845.628 286.52H852.42C852.58 286.52 852.708 286.568 852.804 286.664C852.9 286.76 852.948 286.888 852.948 287.048V287.384C852.948 287.544 852.9 287.672 852.804 287.768C852.708 287.864 852.58 287.912 852.42 287.912H846.564V298.472C846.564 298.632 846.516 298.76 846.42 298.856C846.324 298.952 846.196 299 846.036 299H845.628ZM855.684 303.56C855.524 303.56 855.396 303.512 855.3 303.416C855.204 303.32 855.156 303.192 855.156 303.032V287.048C855.156 286.888 855.204 286.76 855.3 286.664C855.396 286.568 855.524 286.52 855.684 286.52H856.092C856.252 286.52 856.38 286.568 856.476 286.664C856.572 286.76 856.62 286.888 856.62 287.048V288.176C857.02 287.632 857.54 287.184 858.18 286.832C858.836 286.464 859.66 286.28 860.652 286.28C861.596 286.28 862.388 286.448 863.028 286.784C863.668 287.104 864.188 287.536 864.588 288.08C864.988 288.624 865.284 289.232 865.476 289.904C865.668 290.576 865.772 291.264 865.788 291.968C865.804 292.208 865.812 292.472 865.812 292.76C865.812 293.048 865.804 293.312 865.788 293.552C865.772 294.256 865.668 294.944 865.476 295.616C865.284 296.288 864.988 296.896 864.588 297.44C864.188 297.984 863.668 298.424 863.028 298.76C862.388 299.08 861.596 299.24 860.652 299.24C859.66 299.24 858.836 299.056 858.18 298.688C857.54 298.32 857.02 297.872 856.62 297.344V303.032C856.62 303.192 856.572 303.32 856.476 303.416C856.38 303.512 856.252 303.56 856.092 303.56H855.684ZM860.508 297.848C861.452 297.848 862.196 297.64 862.74 297.224C863.284 296.808 863.676 296.264 863.916 295.592C864.156 294.92 864.292 294.2 864.324 293.432C864.34 292.984 864.34 292.536 864.324 292.088C864.292 291.32 864.156 290.6 863.916 289.928C863.676 289.256 863.284 288.712 862.74 288.296C862.196 287.88 861.452 287.672 860.508 287.672C859.596 287.672 858.86 287.888 858.3 288.32C857.74 288.752 857.324 289.296 857.052 289.952C856.796 290.592 856.652 291.24 856.62 291.896C856.604 292.136 856.596 292.448 856.596 292.832C856.596 293.216 856.604 293.528 856.62 293.768C856.636 294.408 856.78 295.04 857.052 295.664C857.34 296.288 857.764 296.808 858.324 297.224C858.9 297.64 859.628 297.848 860.508 297.848ZM873.709 299.24C872.157 299.24 870.925 298.736 870.013 297.728C869.101 296.704 868.581 295.368 868.453 293.72C868.437 293.48 868.429 293.16 868.429 292.76C868.429 292.36 868.437 292.04 868.453 291.8C868.533 290.712 868.789 289.752 869.221 288.92C869.653 288.088 870.245 287.44 870.997 286.976C871.765 286.512 872.669 286.28 873.709 286.28C874.829 286.28 875.781 286.528 876.565 287.024C877.349 287.52 877.949 288.232 878.365 289.16C878.797 290.088 879.013 291.192 879.013 292.472V292.832C879.013 292.992 878.957 293.12 878.845 293.216C878.749 293.312 878.621 293.36 878.461 293.36H869.917C869.917 293.36 869.917 293.392 869.917 293.456C869.917 293.52 869.917 293.568 869.917 293.6C869.949 294.32 870.117 295.008 870.421 295.664C870.725 296.304 871.157 296.832 871.717 297.248C872.277 297.648 872.941 297.848 873.709 297.848C874.397 297.848 874.965 297.744 875.413 297.536C875.877 297.328 876.245 297.104 876.517 296.864C876.789 296.608 876.965 296.416 877.045 296.288C877.189 296.08 877.301 295.96 877.381 295.928C877.461 295.88 877.589 295.856 877.765 295.856H878.149C878.293 295.856 878.413 295.904 878.509 296C878.621 296.08 878.669 296.192 878.653 296.336C878.637 296.56 878.509 296.84 878.269 297.176C878.045 297.496 877.717 297.816 877.285 298.136C876.869 298.456 876.357 298.72 875.749 298.928C875.141 299.136 874.461 299.24 873.709 299.24ZM869.917 292.016H877.549V291.92C877.549 291.12 877.397 290.4 877.093 289.76C876.789 289.12 876.349 288.616 875.773 288.248C875.197 287.864 874.509 287.672 873.709 287.672C872.909 287.672 872.221 287.864 871.645 288.248C871.085 288.616 870.653 289.12 870.349 289.76C870.061 290.4 869.917 291.12 869.917 291.92V292.016ZM886.906 299.24C885.786 299.24 884.834 299.024 884.05 298.592C883.266 298.144 882.666 297.504 882.25 296.672C881.85 295.84 881.634 294.856 881.602 293.72C881.586 293.48 881.578 293.16 881.578 292.76C881.578 292.36 881.586 292.04 881.602 291.8C881.634 290.648 881.85 289.664 882.25 288.848C882.666 288.016 883.266 287.384 884.05 286.952C884.834 286.504 885.786 286.28 886.906 286.28C887.754 286.28 888.482 286.4 889.09 286.64C889.714 286.864 890.226 287.168 890.626 287.552C891.026 287.92 891.33 288.328 891.538 288.776C891.746 289.224 891.858 289.664 891.874 290.096C891.89 290.256 891.842 290.384 891.73 290.48C891.618 290.576 891.49 290.624 891.346 290.624H891.01C890.85 290.624 890.73 290.592 890.65 290.528C890.586 290.448 890.514 290.312 890.434 290.12C890.098 289.208 889.634 288.576 889.042 288.224C888.466 287.856 887.754 287.672 886.906 287.672C885.818 287.672 884.914 288.008 884.194 288.68C883.49 289.336 883.114 290.416 883.066 291.92C883.034 292.48 883.034 293.04 883.066 293.6C883.114 295.104 883.49 296.192 884.194 296.864C884.914 297.52 885.818 297.848 886.906 297.848C887.754 297.848 888.466 297.672 889.042 297.32C889.634 296.952 890.098 296.312 890.434 295.4C890.514 295.208 890.586 295.08 890.65 295.016C890.73 294.936 890.85 294.896 891.01 294.896H891.346C891.49 294.896 891.618 294.944 891.73 295.04C891.842 295.136 891.89 295.264 891.874 295.424C891.858 295.776 891.786 296.128 891.658 296.48C891.53 296.832 891.33 297.176 891.058 297.512C890.802 297.848 890.482 298.144 890.098 298.4C889.714 298.656 889.25 298.856 888.706 299C888.178 299.16 887.578 299.24 886.906 299.24ZM899.774 299.24C898.654 299.24 897.702 299.024 896.918 298.592C896.134 298.144 895.534 297.504 895.118 296.672C894.718 295.84 894.502 294.856 894.47 293.72C894.454 293.48 894.446 293.16 894.446 292.76C894.446 292.36 894.454 292.04 894.47 291.8C894.502 290.648 894.718 289.664 895.118 288.848C895.534 288.016 896.134 287.384 896.918 286.952C897.702 286.504 898.654 286.28 899.774 286.28C900.622 286.28 901.35 286.4 901.958 286.64C902.582 286.864 903.094 287.168 903.494 287.552C903.894 287.92 904.198 288.328 904.406 288.776C904.614 289.224 904.726 289.664 904.742 290.096C904.758 290.256 904.71 290.384 904.598 290.48C904.486 290.576 904.358 290.624 904.214 290.624H903.878C903.718 290.624 903.598 290.592 903.518 290.528C903.454 290.448 903.382 290.312 903.302 290.12C902.966 289.208 902.502 288.576 901.91 288.224C901.334 287.856 900.622 287.672 899.774 287.672C898.686 287.672 897.782 288.008 897.062 288.68C896.358 289.336 895.982 290.416 895.934 291.92C895.902 292.48 895.902 293.04 895.934 293.6C895.982 295.104 896.358 296.192 897.062 296.864C897.782 297.52 898.686 297.848 899.774 297.848C900.622 297.848 901.334 297.672 901.91 297.32C902.502 296.952 902.966 296.312 903.302 295.4C903.382 295.208 903.454 295.08 903.518 295.016C903.598 294.936 903.718 294.896 903.878 294.896H904.214C904.358 294.896 904.486 294.944 904.598 295.04C904.71 295.136 904.758 295.264 904.742 295.424C904.726 295.776 904.654 296.128 904.526 296.48C904.398 296.832 904.198 297.176 903.926 297.512C903.67 297.848 903.35 298.144 902.966 298.4C902.582 298.656 902.118 298.856 901.574 299C901.046 299.16 900.446 299.24 899.774 299.24Z" fill="#FFFCF8"/>
<path d="M76.424 37C76.296 37 76.184 36.952 76.088 36.856C75.992 36.76 75.944 36.648 75.944 36.52V25.048C75.944 24.888 75.992 24.76 76.088 24.664C76.184 24.568 76.312 24.52 76.472 24.52H76.88C77.04 24.52 77.168 24.568 77.264 24.664C77.36 24.76 77.408 24.888 77.408 25.048V35.824L76.976 35.128L84.8 24.88C84.88 24.784 84.96 24.704 85.04 24.64C85.136 24.56 85.264 24.52 85.424 24.52H85.88C86.008 24.52 86.12 24.568 86.216 24.664C86.312 24.744 86.36 24.848 86.36 24.976V36.472C86.36 36.632 86.312 36.76 86.216 36.856C86.12 36.952 85.992 37 85.832 37H85.424C85.264 37 85.136 36.952 85.04 36.856C84.944 36.76 84.896 36.632 84.896 36.472V26.416L85.4 26.296L77.504 36.64C77.44 36.72 77.36 36.8 77.264 36.88C77.168 36.96 77.04 37 76.88 37H76.424ZM90.7689 37C90.6089 37 90.4809 36.952 90.3849 36.856C90.2889 36.76 90.2409 36.632 90.2409 36.472V25.048C90.2409 24.888 90.2889 24.76 90.3849 24.664C90.4809 24.568 90.6089 24.52 90.7689 24.52H91.1769C91.3369 24.52 91.4649 24.568 91.5609 24.664C91.6569 24.76 91.7049 24.888 91.7049 25.048V29.92H99.1929V25.048C99.1929 24.888 99.2409 24.76 99.3369 24.664C99.4329 24.568 99.5609 24.52 99.7209 24.52H100.129C100.289 24.52 100.417 24.568 100.513 24.664C100.609 24.76 100.657 24.888 100.657 25.048V36.472C100.657 36.632 100.609 36.76 100.513 36.856C100.417 36.952 100.289 37 100.129 37H99.7209C99.5609 37 99.4329 36.952 99.3369 36.856C99.2409 36.76 99.1929 36.632 99.1929 36.472V31.312H91.7049V36.472C91.7049 36.632 91.6569 36.76 91.5609 36.856C91.4649 36.952 91.3369 37 91.1769 37H90.7689ZM105.066 37C104.906 37 104.778 36.952 104.682 36.856C104.586 36.76 104.538 36.632 104.538 36.472V25.048C104.538 24.888 104.586 24.76 104.682 24.664C104.778 24.568 104.906 24.52 105.066 24.52H105.474C105.634 24.52 105.762 24.568 105.858 24.664C105.954 24.76 106.002 24.888 106.002 25.048V29.92H113.49V25.048C113.49 24.888 113.538 24.76 113.634 24.664C113.73 24.568 113.858 24.52 114.018 24.52H114.426C114.586 24.52 114.714 24.568 114.81 24.664C114.906 24.76 114.954 24.888 114.954 25.048V36.472C114.954 36.632 114.906 36.76 114.81 36.856C114.714 36.952 114.586 37 114.426 37H114.018C113.858 37 113.73 36.952 113.634 36.856C113.538 36.76 113.49 36.632 113.49 36.472V31.312H106.002V36.472C106.002 36.632 105.954 36.76 105.858 36.856C105.762 36.952 105.634 37 105.474 37H105.066ZM123.587 37.24C122.435 37.24 121.467 37 120.683 36.52C119.915 36.04 119.323 35.384 118.907 34.552C118.507 33.72 118.291 32.792 118.259 31.768C118.243 31.528 118.235 31.192 118.235 30.76C118.235 30.328 118.243 29.992 118.259 29.752C118.291 28.712 118.507 27.784 118.907 26.968C119.323 26.136 119.915 25.48 120.683 25C121.467 24.52 122.435 24.28 123.587 24.28C124.739 24.28 125.699 24.52 126.467 25C127.251 25.48 127.843 26.136 128.243 26.968C128.659 27.784 128.883 28.712 128.915 29.752C128.931 29.992 128.939 30.328 128.939 30.76C128.939 31.192 128.931 31.528 128.915 31.768C128.883 32.792 128.659 33.72 128.243 34.552C127.843 35.384 127.251 36.04 126.467 36.52C125.699 37 124.739 37.24 123.587 37.24ZM123.587 35.848C124.707 35.848 125.619 35.488 126.323 34.768C127.027 34.048 127.403 33.008 127.451 31.648C127.467 31.408 127.475 31.112 127.475 30.76C127.475 30.408 127.467 30.112 127.451 29.872C127.403 28.496 127.027 27.456 126.323 26.752C125.619 26.032 124.707 25.672 123.587 25.672C122.467 25.672 121.555 26.032 120.851 26.752C120.147 27.456 119.771 28.496 119.723 29.872C119.707 30.112 119.699 30.408 119.699 30.76C119.699 31.112 119.707 31.408 119.723 31.648C119.771 33.008 120.147 34.048 120.851 34.768C121.555 35.488 122.467 35.848 123.587 35.848ZM132.745 37C132.585 37 132.457 36.952 132.361 36.856C132.265 36.76 132.217 36.632 132.217 36.472V25.048C132.217 24.888 132.265 24.76 132.361 24.664C132.457 24.568 132.585 24.52 132.745 24.52H137.473C138.801 24.52 139.817 24.816 140.521 25.408C141.241 26 141.601 26.792 141.601 27.784C141.601 28.552 141.457 29.12 141.169 29.488C140.881 29.856 140.465 30.168 139.921 30.424C140.561 30.664 141.041 31.088 141.361 31.696C141.681 32.304 141.841 32.912 141.841 33.52C141.841 34.656 141.449 35.52 140.665 36.112C139.897 36.704 138.873 37 137.593 37H132.745ZM133.681 35.608H137.401C138.281 35.608 138.993 35.432 139.537 35.08C140.097 34.728 140.377 34.208 140.377 33.52C140.377 32.784 140.129 32.248 139.633 31.912C139.137 31.576 138.393 31.408 137.401 31.408H133.681V35.608ZM133.681 30.016H137.233C138.113 30.016 138.817 29.816 139.345 29.416C139.873 29.016 140.137 28.472 140.137 27.784C140.137 27.08 139.873 26.592 139.345 26.32C138.817 26.048 138.113 25.912 137.233 25.912H133.681V30.016ZM148.585 37.24C147.817 37.24 147.105 37.08 146.449 36.76C145.809 36.44 145.289 36.016 144.889 35.488C144.489 34.944 144.289 34.336 144.289 33.664C144.289 32.576 144.729 31.704 145.609 31.048C146.489 30.392 147.633 29.968 149.041 29.776L152.833 29.248V28.408C152.833 27.56 152.569 26.896 152.041 26.416C151.529 25.92 150.705 25.672 149.569 25.672C148.737 25.672 148.065 25.84 147.553 26.176C147.041 26.496 146.689 26.92 146.497 27.448C146.417 27.688 146.265 27.808 146.041 27.808H145.657C145.465 27.808 145.329 27.76 145.249 27.664C145.169 27.552 145.129 27.424 145.129 27.28C145.129 27.056 145.209 26.776 145.369 26.44C145.545 26.104 145.809 25.776 146.161 25.456C146.513 25.12 146.969 24.84 147.529 24.616C148.089 24.392 148.769 24.28 149.569 24.28C150.513 24.28 151.289 24.408 151.897 24.664C152.521 24.92 153.001 25.256 153.337 25.672C153.689 26.072 153.937 26.52 154.081 27.016C154.225 27.512 154.297 28 154.297 28.48V36.472C154.297 36.632 154.249 36.76 154.153 36.856C154.057 36.952 153.929 37 153.769 37H153.361C153.201 37 153.073 36.952 152.977 36.856C152.881 36.76 152.833 36.632 152.833 36.472V35.344C152.641 35.632 152.369 35.92 152.017 36.208C151.665 36.496 151.209 36.744 150.649 36.952C150.105 37.144 149.417 37.24 148.585 37.24ZM148.825 35.848C149.561 35.848 150.233 35.688 150.841 35.368C151.449 35.048 151.929 34.56 152.281 33.904C152.649 33.232 152.833 32.392 152.833 31.384V30.568L149.737 31C148.425 31.176 147.433 31.48 146.761 31.912C146.089 32.344 145.753 32.888 145.753 33.544C145.753 34.072 145.905 34.504 146.209 34.84C146.513 35.176 146.897 35.432 147.361 35.608C147.841 35.768 148.329 35.848 148.825 35.848ZM168.796 40.12C168.636 40.12 168.508 40.072 168.412 39.976C168.316 39.88 168.268 39.752 168.268 39.592V37H158.62C158.46 37 158.332 36.952 158.236 36.856C158.14 36.76 158.092 36.632 158.092 36.472V25.048C158.092 24.888 158.14 24.76 158.236 24.664C158.332 24.568 158.46 24.52 158.62 24.52H159.028C159.188 24.52 159.316 24.568 159.412 24.664C159.508 24.76 159.556 24.888 159.556 25.048V35.608H166.564V25.048C166.564 24.888 166.612 24.76 166.708 24.664C166.804 24.568 166.932 24.52 167.092 24.52H167.5C167.66 24.52 167.788 24.568 167.884 24.664C167.98 24.76 168.028 24.888 168.028 25.048L168.004 35.608H169.204C169.364 35.608 169.492 35.656 169.588 35.752C169.684 35.848 169.732 35.976 169.732 36.136V39.592C169.732 39.752 169.684 39.88 169.588 39.976C169.492 40.072 169.364 40.12 169.204 40.12H168.796ZM172.987 37C172.859 37 172.747 36.952 172.651 36.856C172.555 36.76 172.507 36.648 172.507 36.52V25.048C172.507 24.888 172.555 24.76 172.651 24.664C172.747 24.568 172.875 24.52 173.035 24.52H173.443C173.603 24.52 173.731 24.568 173.827 24.664C173.923 24.76 173.971 24.888 173.971 25.048V35.824L173.539 35.128L181.363 24.88C181.443 24.784 181.523 24.704 181.603 24.64C181.699 24.56 181.827 24.52 181.987 24.52H182.443C182.571 24.52 182.683 24.568 182.779 24.664C182.875 24.744 182.923 24.848 182.923 24.976V36.472C182.923 36.632 182.875 36.76 182.779 36.856C182.683 36.952 182.555 37 182.395 37H181.987C181.827 37 181.699 36.952 181.603 36.856C181.507 36.76 181.459 36.632 181.459 36.472V26.416L181.963 26.296L174.067 36.64C174.003 36.72 173.923 36.8 173.827 36.88C173.731 36.96 173.603 37 173.443 37H172.987ZM187.283 37C187.155 37 187.043 36.952 186.947 36.856C186.851 36.76 186.803 36.648 186.803 36.52V25.048C186.803 24.888 186.851 24.76 186.947 24.664C187.043 24.568 187.171 24.52 187.331 24.52H187.739C187.899 24.52 188.027 24.568 188.123 24.664C188.219 24.76 188.267 24.888 188.267 25.048V35.824L187.835 35.128L195.659 24.88C195.739 24.784 195.819 24.704 195.899 24.64C195.995 24.56 196.123 24.52 196.283 24.52H196.739C196.867 24.52 196.979 24.568 197.075 24.664C197.171 24.744 197.219 24.848 197.219 24.976V36.472C197.219 36.632 197.171 36.76 197.075 36.856C196.979 36.952 196.851 37 196.691 37H196.283C196.123 37 195.995 36.952 195.899 36.856C195.803 36.76 195.755 36.632 195.755 36.472V26.416L196.259 26.296L188.363 36.64C188.299 36.72 188.219 36.8 188.123 36.88C188.027 36.96 187.899 37 187.739 37H187.283Z" fill="#FFFCF8"/>
<path d="M30.5729 8.07266L44.7853 17.9725L46.2526 0.714261L30.5729 8.07266ZM474.845 216.271L474.069 217.554L474.845 216.271ZM39.2104 10.6432C40.893 10.9224 42.8343 11.2738 45.0462 11.7161L45.6344 8.77433C43.3912 8.3258 41.4176 7.96839 39.7014 7.68364L39.2104 10.6432ZM50.9164 12.9695C52.7231 13.3781 54.6596 13.8356 56.7297 14.3479L57.4504 11.4357C55.3611 10.9187 53.405 10.4565 51.5781 10.0434L50.9164 12.9695ZM62.4965 15.8287C64.3296 16.3157 66.2491 16.8405 68.2568 17.4061L69.0702 14.5184C67.0484 13.9489 65.1145 13.4202 63.2668 12.9293L62.4965 15.8287ZM74.0557 19.0822C75.9045 19.6297 77.8185 20.2086 79.7989 20.8209L80.685 17.9547C78.6934 17.339 76.768 16.7566 74.9076 16.2056L74.0557 19.0822ZM85.4581 22.6042C87.3353 23.2066 89.2662 23.8368 91.2516 24.4962L92.1971 21.6491C90.2022 20.9866 88.2618 20.3532 86.3748 19.7477L85.4581 22.6042ZM96.8412 26.3807C98.7061 27.0188 100.615 27.681 102.569 28.3683L103.565 25.5383C101.603 24.8482 99.6854 24.1831 97.8123 23.5423L96.8412 26.3807ZM108.159 30.3595C110.022 31.0314 111.923 31.725 113.862 32.4409L114.901 29.6266C112.955 28.9081 111.047 28.2119 109.176 27.5374L108.159 30.3595ZM119.407 34.5102C121.282 35.2172 123.191 35.9442 125.133 36.6918L126.211 33.892C124.262 33.142 122.347 32.4125 120.465 31.7031L119.407 34.5102ZM130.605 38.8171C132.459 39.5434 134.341 40.2878 136.254 41.0506L137.365 38.2641C135.447 37.4991 133.559 36.7525 131.7 36.024L130.605 38.8171ZM141.784 43.2747C143.603 44.0123 145.447 44.7659 147.318 45.5361L148.46 42.7621C146.585 41.9899 144.735 41.2341 142.911 40.4945L141.784 43.2747ZM152.976 47.8837C154.758 48.6285 156.562 49.3877 158.389 50.1617L159.56 47.3994C157.728 46.6236 155.92 45.8624 154.133 45.1158L152.976 47.8837ZM163.937 52.5282C165.772 53.3161 167.629 54.1184 169.508 54.9355L170.705 52.1843C168.822 51.3654 166.96 50.5613 165.121 49.7715L163.937 52.5282ZM174.916 57.301C176.738 58.1029 178.581 58.9183 180.443 59.7473L181.663 57.0066C179.797 56.1758 177.951 55.3587 176.124 54.5551L174.916 57.301ZM185.983 62.2269C187.757 63.0254 189.549 63.8361 191.358 64.659L192.6 61.9281C190.787 61.1036 188.992 60.2914 187.214 59.4912L185.983 62.2269ZM196.84 67.1648C198.677 68.0088 200.532 68.8651 202.404 69.734L203.667 67.0127C201.791 66.1422 199.933 65.2843 198.092 64.4387L196.84 67.1648ZM207.728 72.2157C209.518 73.054 211.324 73.9036 213.146 74.7646L214.428 72.0521C212.603 71.1897 210.794 70.3387 209 69.4988L207.728 72.2157ZM218.66 77.3816C220.441 78.2307 222.237 79.0904 224.048 79.9609L225.347 77.2571C223.534 76.3852 221.735 75.5241 219.951 74.6736L218.66 77.3816ZM229.391 82.5399C231.186 83.4098 232.995 84.2902 234.819 85.181L236.136 82.4854C234.309 81.5932 232.497 80.7115 230.699 79.8402L229.391 82.5399ZM240.333 87.8851C242.078 88.7441 243.835 89.6125 245.606 90.4904L246.938 87.8027C245.165 86.9235 243.405 86.0538 241.658 85.1936L240.333 87.8851ZM250.942 93.1458C252.733 94.0405 254.537 94.9447 256.354 95.8586L257.702 93.1785C255.883 92.2633 254.076 91.3578 252.282 90.4619L250.942 93.1458ZM261.827 98.6205C263.562 99.4991 265.308 100.386 267.066 101.282L268.428 98.6096C266.668 97.7124 264.919 96.8239 263.182 95.9441L261.827 98.6205ZM272.375 103.997C274.156 104.911 275.948 105.833 277.753 106.764L279.129 104.099C277.322 103.166 275.527 102.242 273.744 101.328L272.375 103.997ZM283.201 109.585C284.935 110.486 286.679 111.394 288.433 112.311L289.822 109.652C288.066 108.734 286.319 107.825 284.584 106.923L283.201 109.585ZM293.699 115.07C295.465 115.998 297.242 116.934 299.029 117.878L300.43 115.225C298.641 114.28 296.863 113.343 295.095 112.414L293.699 115.07ZM304.421 120.735C306.179 121.669 307.946 122.61 309.723 123.56L311.137 120.914C309.358 119.963 307.588 119.021 305.829 118.086L304.421 120.735ZM314.936 126.351C316.683 127.29 318.439 128.235 320.206 129.188L321.63 126.548C319.862 125.594 318.104 124.647 316.355 123.708L314.936 126.351ZM325.533 132.071C327.318 133.039 329.113 134.015 330.918 134.999L332.354 132.365C330.547 131.38 328.751 130.403 326.963 129.434L325.533 132.071ZM336.11 137.836C337.836 138.781 339.57 139.733 341.313 140.692L342.759 138.064C341.014 137.104 339.278 136.151 337.551 135.205L336.11 137.836ZM346.568 143.59C348.328 144.564 350.097 145.544 351.875 146.531L353.331 143.908C351.552 142.92 349.781 141.939 348.019 140.965L346.568 143.59ZM357.235 149.514C358.943 150.467 360.659 151.426 362.382 152.392L363.849 149.774C362.123 148.808 360.406 147.848 358.697 146.894L357.235 149.514ZM367.56 155.298C369.294 156.273 371.036 157.255 372.786 158.244L374.261 155.632C372.51 154.642 370.766 153.66 369.031 152.683L367.56 155.298ZM378.06 161.229C379.826 162.231 381.6 163.239 383.382 164.254L384.866 161.647C383.083 160.631 381.307 159.622 379.54 158.619L378.06 161.229ZM388.546 167.201C390.253 168.177 391.967 169.158 393.688 170.146L395.181 167.544C393.459 166.555 391.743 165.573 390.035 164.597L388.546 167.201ZM398.873 173.128C400.609 174.127 402.352 175.133 404.102 176.146L405.604 173.549C403.852 172.536 402.108 171.529 400.371 170.528L398.873 173.128ZM409.376 179.201C411.116 180.211 412.864 181.227 414.618 182.249L416.128 179.656C414.372 178.634 412.623 177.617 410.882 176.606L409.376 179.201ZM419.714 185.222C421.419 186.219 423.131 187.222 424.85 188.23L426.368 185.642C424.648 184.633 422.935 183.63 421.228 182.632L419.714 185.222ZM430.027 191.271C431.759 192.291 433.498 193.316 435.244 194.347L436.77 191.764C435.023 190.732 433.282 189.706 431.549 188.686L430.027 191.271ZM440.502 197.458C442.216 198.473 443.936 199.494 445.663 200.521L447.196 197.942C445.468 196.915 443.747 195.893 442.032 194.877L440.502 197.458ZM450.744 203.546C452.444 204.559 454.15 205.578 455.862 206.603L457.402 204.028C455.688 203.003 453.981 201.983 452.28 200.969L450.744 203.546ZM461.017 209.691C462.742 210.726 464.473 211.767 466.21 212.812L467.757 210.242C466.019 209.196 464.286 208.155 462.561 207.119L461.017 209.691ZM471.44 215.966C472.315 216.494 473.191 217.023 474.069 217.554L475.621 214.987C474.743 214.456 473.866 213.926 472.991 213.397L471.44 215.966ZM474.069 217.554C474.946 218.085 475.822 218.613 476.695 219.14L478.244 216.57C477.372 216.045 476.497 215.517 475.621 214.987L474.069 217.554ZM481.912 222.273C483.643 223.31 485.366 224.338 487.081 225.358L488.614 222.779C486.902 221.761 485.181 220.734 483.453 219.7L481.912 222.273ZM492.203 228.393C493.902 229.397 495.594 230.392 497.277 231.38L498.795 228.792C497.114 227.806 495.425 226.812 493.728 225.81L492.203 228.393ZM502.305 234.318C504.026 235.32 505.738 236.313 507.442 237.298L508.944 234.701C507.242 233.718 505.533 232.726 503.815 231.725L502.305 234.318ZM512.719 240.336C514.469 241.34 516.211 242.335 517.943 243.32L519.427 240.713C517.697 239.729 515.959 238.736 514.212 237.734L512.719 240.336ZM523.114 246.251C524.829 247.219 526.536 248.177 528.233 249.128L529.698 246.51C528.004 245.561 526.301 244.604 524.589 243.638L523.114 246.251ZM533.3 251.952C535.077 252.938 536.844 253.914 538.601 254.881L540.047 252.252C538.293 251.287 536.529 250.313 534.756 249.329L533.3 251.952ZM543.917 257.792C545.679 258.752 547.432 259.702 549.174 260.643L550.599 258.003C548.86 257.064 547.111 256.116 545.353 255.157L543.917 257.792ZM554.373 263.435C556.096 264.356 557.809 265.268 559.513 266.169L560.916 263.518C559.216 262.618 557.506 261.709 555.787 260.79L554.373 263.435ZM564.791 268.949C566.6 269.897 568.398 270.833 570.185 271.759L571.565 269.095C569.782 268.171 567.988 267.237 566.183 266.292L564.791 268.949ZM575.512 274.503C577.276 275.407 579.03 276.3 580.773 277.182L582.128 274.506C580.389 273.626 578.64 272.735 576.879 271.833L575.512 274.503ZM585.969 279.798C587.771 280.7 589.561 281.59 591.34 282.469L592.669 279.779C590.895 278.903 589.109 278.014 587.311 277.115L585.969 279.798ZM596.789 285.143C598.593 286.023 600.384 286.89 602.163 287.746L603.463 285.042C601.689 284.189 599.903 283.324 598.104 282.447L596.789 285.143ZM607.464 290.277C609.226 291.113 610.977 291.937 612.715 292.749L613.985 290.031C612.252 289.221 610.507 288.4 608.749 287.566L607.464 290.277ZM618.273 295.327C620.112 296.172 621.936 297.005 623.747 297.824L624.984 295.091C623.179 294.274 621.36 293.444 619.527 292.601L618.273 295.327ZM629.138 300.243C630.921 301.036 632.69 301.816 634.446 302.584L635.647 299.835C633.898 299.07 632.135 298.292 630.357 297.502L629.138 300.243ZM640.023 304.999C641.891 305.799 643.742 306.585 645.577 307.356L646.739 304.591C644.911 303.822 643.066 303.039 641.206 302.241L640.023 304.999ZM651.036 309.627C652.84 310.369 654.629 311.097 656.401 311.811L657.522 309.028C655.756 308.317 653.975 307.592 652.178 306.852L651.036 309.627ZM662.081 314.071C663.967 314.812 665.834 315.537 667.684 316.246L668.758 313.444C666.916 312.739 665.056 312.017 663.178 311.279L662.081 314.071ZM673.181 318.324C675.046 319.02 676.892 319.7 678.721 320.363L679.743 317.542C677.924 316.883 676.086 316.207 674.229 315.514L673.181 318.324ZM684.455 322.41C686.346 323.075 688.216 323.721 690.067 324.35L691.032 321.509C689.192 320.884 687.331 320.241 685.45 319.58L684.455 322.41ZM695.561 326.185C697.532 326.832 699.48 327.459 701.404 328.065L702.306 325.204C700.393 324.601 698.457 323.978 696.496 323.335L695.561 326.185ZM707.106 329.825C708.984 330.392 710.838 330.939 712.669 331.468L713.5 328.585C711.681 328.06 709.839 327.517 707.973 326.953L707.106 329.825ZM718.569 333.125C720.514 333.657 722.432 334.167 724.324 334.655L725.074 331.75C723.196 331.265 721.291 330.76 719.36 330.231L718.569 333.125ZM730.012 336.077C732.024 336.563 734.004 337.025 735.954 337.462L736.61 334.535C734.677 334.101 732.713 333.644 730.717 333.161L730.012 336.077ZM741.709 338.7C743.713 339.113 745.682 339.499 747.617 339.86L748.166 336.91C746.25 336.553 744.3 336.171 742.315 335.762L741.709 338.7ZM753.512 340.896C755.5 341.224 757.451 341.524 759.364 341.797L759.788 338.827C757.897 338.557 755.968 338.261 754.001 337.936L753.512 340.896ZM765.365 342.581C767.362 342.816 769.316 343.022 771.229 343.198L771.504 340.21C769.618 340.037 767.689 339.834 765.716 339.601L765.365 342.581ZM777.282 343.668C779.308 343.796 781.283 343.889 783.209 343.95L783.305 340.952C781.41 340.892 779.466 340.8 777.47 340.674L777.282 343.668ZM789.24 344.039C791.304 344.033 793.308 343.988 795.251 343.907L795.127 340.909C793.223 340.989 791.258 341.033 789.23 341.039L789.24 344.039ZM801.155 343.539C803.255 343.363 805.277 343.143 807.225 342.884L806.829 339.91C804.931 340.163 802.957 340.378 800.905 340.55L801.155 343.539ZM813.181 341.93C815.229 341.544 817.183 341.113 819.048 340.642L818.314 337.734C816.509 338.189 814.615 338.607 812.625 338.982L813.181 341.93ZM824.83 338.974C826.844 338.315 828.734 337.611 830.508 336.871L829.353 334.102C827.654 334.811 825.837 335.488 823.897 336.123L824.83 338.974ZM836.028 334.277C837.955 333.26 839.706 332.208 841.296 331.144L839.628 328.651C838.125 329.656 836.463 330.655 834.627 331.624L836.028 334.277ZM846.168 327.458C847.914 325.962 849.368 324.498 850.57 323.135L848.32 321.15C847.207 322.413 845.852 323.778 844.216 325.18L846.168 327.458ZM854.251 318.184C854.77 317.33 855.133 316.631 855.369 316.137C855.488 315.89 855.575 315.694 855.634 315.555C855.663 315.485 855.686 315.43 855.702 315.389C855.71 315.369 855.717 315.353 855.721 315.34C855.724 315.334 855.726 315.328 855.728 315.324C855.728 315.322 855.729 315.32 855.73 315.318C855.73 315.317 855.73 315.316 855.731 315.316C855.731 315.315 855.731 315.315 855.731 315.315C855.731 315.314 855.731 315.314 855.731 315.314C855.731 315.314 855.731 315.314 854.327 314.787C852.922 314.261 852.922 314.26 852.922 314.26C852.922 314.26 852.923 314.26 852.923 314.26C852.923 314.26 852.923 314.259 852.923 314.259C852.923 314.259 852.923 314.258 852.923 314.258C852.924 314.257 852.924 314.257 852.924 314.256C852.924 314.256 852.924 314.256 852.923 314.258C852.922 314.26 852.92 314.267 852.916 314.277C852.907 314.298 852.893 314.333 852.872 314.383C852.83 314.481 852.762 314.636 852.664 314.841C852.468 315.251 852.151 315.861 851.687 316.626L854.251 318.184Z" fill="#9E9B96"/>
</svg>
