<svg width="189" height="780" viewBox="0 0 189 780" fill="none" xmlns="http://www.w3.org/2000/svg">
<path d="M87.9229 63L153.147 208.637C175.582 258.732 171.834 316.674 143.132 363.462L130.071 384.755C104.348 426.686 105.183 479.707 132.213 520.807V520.807C165.28 571.087 158.475 637.678 115.923 680.231L87.9229 708.231" stroke="white" stroke-width="6" stroke-dasharray="12 12"/>
<path d="M87.3139 55.8317C86.7381 52.0396 83.9493 42.6149 86.9441 39.6711C88.8239 37.78 90.6053 35.7895 92.3845 33.8018C93.2963 32.6633 94.3591 31.5421 94.897 30.166C95.7999 27.4188 92.2038 27.3344 90.3791 26.9563C87.8827 26.1866 79.4738 25.6253 78.4816 23.9012C76.6926 20.9436 74.9483 17.9592 73.19 14.9832C72.423 13.4434 70.3283 13.2671 69.4368 14.8053C67.8197 17.9055 65.9898 20.8839 64.1352 23.85C63.5697 24.7694 62.8079 25.2185 61.661 25.2662C57.1589 25.5567 52.5991 25.573 48.1345 26.2207C44.1678 27.5722 48.4903 30.8587 49.9597 32.4649C52.118 34.6939 54.3056 36.895 56.4416 39.1452C57.9763 40.7619 57.9215 40.7844 57.5313 42.9699C56.8434 47.2139 55.9175 51.4416 55.4026 55.7041C55.4746 57.6679 56.9261 58.5513 58.665 57.6345C62.8363 55.4684 66.8739 53.0411 71.1738 51.1325C71.6686 50.8981 72.0944 50.9974 72.5605 51.2807C75.8192 53.2617 79.0864 55.2288 82.3672 57.1728C84.2377 58.4627 87.3669 59.3049 87.3139 55.8317Z" fill="white"/>
<path d="M59.1948 18.2383C58.4255 15.9237 53.8931 6.7875 51.7038 6.323C50.103 5.9268 48.8123 7.82267 49.6435 9.19811C51.5749 12.0767 53.3191 15.0915 55.1557 18.0358C55.4656 18.5389 55.761 19.061 56.141 19.5081C57.2406 20.787 59.1786 19.8881 59.1948 18.2383Z" fill="white"/>
<path d="M91.6138 9.84546C91.499 8.18379 89.6866 7.1749 88.3509 8.18613C85.8896 10.8395 84.0414 14.0756 81.8241 16.95C80.4991 18.5047 82.2177 20.8998 84.051 19.7951C86.6321 17.3468 88.5377 14.1902 90.8132 11.4455C91.168 10.9791 91.3512 10.3821 91.6138 9.84546Z" fill="white"/>
<path d="M74.4287 64.8124C74.2564 62.4724 74.0992 60.1311 73.8974 57.7937C73.8004 56.526 72.5868 55.3262 71.2985 55.7309C70.455 55.9679 69.848 56.7049 69.862 57.6127C69.9229 60.373 69.9936 63.1362 70.1069 65.8944C69.9364 68.6967 73.6608 69.6125 74.3544 66.7587C74.4458 66.1234 74.3717 65.4641 74.3717 64.8156C74.3907 64.8145 74.4097 64.8135 74.4287 64.8124Z" fill="white"/>
<path d="M100.175 51.5318C101.769 51.4129 102.703 49.8053 101.901 48.4683C100.56 46.8494 98.4627 45.9405 96.7192 44.8054C95.269 44.2142 92.633 42.3656 91.2491 43.6236C90.1951 44.5227 90.485 46.0391 91.8 46.745C93.31 47.5555 94.8066 48.3937 96.2796 49.2693C97.5623 50.0662 98.6938 51.0984 100.175 51.5318Z" fill="white"/>
<path d="M43.0139 45.8233C45.3399 45.2844 47.9554 44.3886 50.288 43.6782C52.4976 43.2488 52.6274 40.0162 50.2231 39.8519C47.3738 40.2968 44.5007 41.0809 41.747 41.942C39.6404 43.05 40.4207 45.979 43.0139 45.8233Z" fill="white"/>
<g clip-path="url(#clip0_37_93)">
<path d="M59.4605 745.242C50.4344 738.836 40.7823 733.366 32.0535 726.541C23.8388 720.574 23.4766 716.142 28.7355 707.684C39.8561 690.2 43.2451 681.9 63.0597 696.778C69.0614 700.975 75.1579 705.019 81.4554 708.759C86.7239 712.124 92.2772 715.344 96.4219 720.118C100.662 724.725 97.3443 730.321 94.2976 734.528C91.427 738.628 88.496 742.686 85.5351 746.722C76.6238 760.249 69.4047 751.793 59.474 745.222C59.4695 745.229 59.465 745.235 59.4605 745.242ZM61.1038 741.306C61.1322 741.265 61.1606 741.223 61.189 741.182C63.6311 742.939 66.0485 744.732 68.5251 746.44C71.5224 748.396 75.3772 751.54 78.6746 748.403C84.3315 742.295 88.7773 735.1 93.3953 728.186C96.7917 723.216 89.8106 719.525 86.4944 716.913C80.4069 712.854 74.1184 709.096 67.9343 705.185C61.6904 701.454 55.8723 696.869 49.2228 693.88C42.8427 691.023 39.2438 699.32 35.9509 703.373C33.3437 707.129 30.8674 711.094 29.3964 715.458C28.7451 717.281 29.9921 719.156 31.2817 720.371C40.4962 728.351 51.2015 734.258 61.1038 741.306Z" fill="white"/>
<path d="M65.1389 692.728C63.9049 694.851 61.3867 693.951 61.617 691.816C62.7304 687.656 64.4831 683.653 65.9282 679.592C66.8249 676.967 70.553 677.803 69.9206 680.598C69.6999 681.361 69.3651 682.092 69.0689 682.832C67.8064 686.017 66.3181 689.59 65.1389 692.728Z" fill="white"/>
<path d="M44.8313 740.724C45.5167 741.205 45.6682 741.924 45.6097 742.677C45.3343 746.213 44.6356 749.705 43.9845 753.186C43.3234 755.564 40.1653 754.98 40.427 752.507C40.9186 749.445 41.5125 746.393 42.0542 743.337C42.2253 741.802 42.8759 739.577 44.8313 740.724Z" fill="white"/>
<path d="M23.3123 722.781C22.9239 723.012 22.5627 723.342 22.1426 723.457C19.3802 724.046 16.6403 725.24 13.8201 725.348C12.012 725.139 11.6271 722.552 13.2646 721.789C15.6147 721.04 18.105 720.714 20.5101 720.151C22.3365 719.508 24.3824 720.737 23.3123 722.781Z" fill="white"/>
<path d="M77.4464 693.752C78.8105 694.568 78.5542 696.701 77.1267 697.215C75.419 697.778 73.6287 698.129 71.8738 698.525C68.6143 699.341 67.8419 695.336 71.1431 694.77C72.5949 694.348 74.0552 693.955 75.5095 693.541C76.211 693.341 76.878 693.348 77.4464 693.752Z" fill="white"/>
<path d="M35.3371 735.428C34.1035 736.609 32.5005 737.612 31.129 738.662C29.4299 740.025 27.0344 738.273 28.3152 736.332C28.4837 736.097 28.6907 735.867 28.9291 735.707C30.4974 734.75 31.9505 733.535 33.627 732.784C35.1766 732.325 36.4188 734.04 35.3371 735.428Z" fill="white"/>
<path d="M52.1298 684.868C51.1683 686.143 49.4051 685.582 48.9804 684.193C48.5817 682.67 47.1672 680.743 48.4578 679.333C49.2815 678.46 50.8526 678.664 51.3034 679.836C51.7893 681.098 52.0472 682.454 52.3341 683.785C52.4056 684.116 52.2052 684.505 52.1298 684.868Z" fill="white"/>
<path d="M61.104 741.306C51.2017 734.258 40.4963 728.351 31.2819 720.371C29.9898 719.156 28.748 717.281 29.3966 715.458C30.8671 711.094 33.3444 707.129 35.9512 703.373C39.2331 699.313 42.8504 691.027 49.2227 693.88C55.8726 696.869 61.6906 701.454 67.9347 705.184C74.1187 709.096 80.4072 712.854 86.4944 716.913C89.8285 719.523 96.7776 723.217 93.3957 728.186C88.7783 735.1 84.3314 742.295 78.6751 748.403C75.3742 751.536 71.5248 748.398 68.5254 746.439C66.0488 744.732 63.6314 742.939 61.1893 741.182C61.1608 741.223 61.1324 741.265 61.104 741.306ZM36.6059 708.561C36.6297 708.581 36.6535 708.602 36.6773 708.622C28.2652 720.464 34.6918 719.665 43.7104 726.368C50.2329 730.781 56.8109 735.112 63.3649 739.477C65.2953 740.909 67.2404 742.292 69.3697 743.416C70.5774 744.191 71.5968 744.214 72.6227 743.211C73.4589 742.394 74.248 741.496 74.8989 740.527C78.5303 734.817 82.605 729.315 85.1781 723.011C86.9221 718.969 82.4479 716.161 79.4773 714.368C75.4677 712.184 71.6548 709.66 67.8133 707.197C61.4666 703.404 55.6648 698.533 48.8681 695.58C47.7265 695.146 46.6682 695.434 45.8862 696.45C42.7925 700.487 39.6995 704.524 36.6059 708.561ZM81.5273 737.329C86.3259 739.8 88.2747 732.911 84.332 730.483C84.0674 730.305 83.6142 730.223 83.3166 730.316C79.9773 730.829 78.7744 735.448 81.5273 737.329Z" fill="#212121"/>
<path d="M36.6057 708.561C39.6993 704.524 42.7924 700.487 45.8858 696.45C46.6679 695.434 47.7262 695.146 48.8675 695.58C55.6644 698.533 61.4663 703.405 67.8132 707.196C71.6545 709.659 75.4674 712.184 79.4768 714.368C82.4536 716.159 86.9179 718.97 85.1777 723.01C82.6051 729.315 78.5296 734.817 74.8988 740.527C74.2477 741.496 73.4586 742.394 72.6224 743.211C71.5966 744.214 70.5771 744.191 69.3693 743.416C67.2414 742.293 65.294 740.908 63.3646 739.477C56.8104 735.112 50.2326 730.781 43.7101 726.368C34.6881 719.656 28.2648 720.477 36.677 708.622C36.6533 708.602 36.6296 708.581 36.6057 708.561ZM43.9148 722.668C44.8621 723.155 46.1356 723.841 47.4374 724.468C49.4407 725.49 50.9994 722.818 49.0117 721.597C46.4166 719.842 43.9602 717.903 41.5166 715.946C40.609 715.227 39.3918 715.25 38.7243 716.018C37.9086 716.919 38.1663 718.199 39.1646 718.997C40.6429 720.141 42.1221 721.283 43.9148 722.668Z" fill="white"/>
<path d="M81.5263 737.329C78.7737 735.447 79.976 730.829 83.3157 730.316C83.6132 730.223 84.0664 730.305 84.3312 730.483C88.2745 732.912 86.3234 739.8 81.5263 737.329ZM83.8156 735.135C84.2334 734.509 84.0724 733.577 83.6086 733.297C83.3746 733.156 83.071 732.936 82.816 733.367C82.2717 734.443 82.6114 735.592 83.8156 735.135Z" fill="white"/>
<path d="M43.9144 722.668C42.1217 721.283 40.6424 720.141 39.1642 718.997C38.1672 718.199 37.9071 716.918 38.724 716.018C39.3914 715.25 40.6086 715.226 41.5161 715.946C43.9597 717.903 46.4161 719.842 49.0113 721.596C50.9969 722.816 49.4421 725.491 47.4368 724.468C46.1351 723.841 44.8616 723.155 43.9144 722.668Z" fill="#212121"/>
<path d="M83.8165 735.135C82.6118 735.592 82.2727 734.442 82.8168 733.367C83.0719 732.936 83.3755 733.155 83.6095 733.297C84.0732 733.577 84.2342 734.509 83.8165 735.135Z" fill="#212121"/>
</g>
<defs>
<clipPath id="clip0_37_93">
<rect width="85.8461" height="85.8461" fill="white" transform="translate(0 730.753) rotate(-55.7793)"/>
</clipPath>
</defs>
</svg>
