<svg fill="none" xmlns="http://www.w3.org/2000/svg">
<path d="M101.64 22C101.464 22 101.328 21.952 101.232 21.856C101.136 21.744 101.088 21.608 101.088 21.448V5.776C101.088 5.6 101.136 5.464 101.232 5.368C101.328 5.256 101.464 5.2 101.64 5.2H108.216C109.416 5.2 110.392 5.4 111.144 5.8C111.912 6.184 112.472 6.712 112.824 7.384C113.192 8.056 113.376 8.808 113.376 9.64C113.376 10.296 113.264 10.864 113.04 11.344C112.832 11.808 112.568 12.192 112.248 12.496C111.928 12.784 111.616 13.008 111.312 13.168C111.936 13.472 112.488 13.968 112.968 14.656C113.464 15.344 113.712 16.176 113.712 17.152C113.712 18.032 113.512 18.84 113.112 19.576C112.712 20.312 112.112 20.904 111.312 21.352C110.528 21.784 109.552 22 108.384 22H101.64ZM103.44 20.056H108.072C109.112 20.056 109.912 19.776 110.472 19.216C111.032 18.656 111.312 17.968 111.312 17.152C111.312 16.304 111.032 15.608 110.472 15.064C109.912 14.504 109.112 14.224 108.072 14.224H103.44V20.056ZM103.44 12.304H107.856C108.88 12.304 109.656 12.072 110.184 11.608C110.712 11.128 110.976 10.48 110.976 9.664C110.976 8.848 110.712 8.224 110.184 7.792C109.656 7.36 108.88 7.144 107.856 7.144H103.44V12.304ZM117.359 22C117.199 22 117.063 21.952 116.951 21.856C116.855 21.744 116.807 21.608 116.807 21.448V10.072C116.807 9.912 116.855 9.784 116.951 9.688C117.063 9.576 117.199 9.52 117.359 9.52H118.511C118.671 9.52 118.799 9.576 118.895 9.688C119.007 9.784 119.063 9.912 119.063 10.072V13.6H121.559C123.191 13.6 124.383 13.984 125.135 14.752C125.887 15.52 126.263 16.56 126.263 17.872C126.263 19.28 125.847 20.32 125.015 20.992C124.183 21.664 122.935 22 121.271 22H117.359ZM119.039 20.2H121.343C122.319 20.2 123.031 20.032 123.479 19.696C123.927 19.344 124.151 18.736 124.151 17.872C124.151 17.04 123.935 16.424 123.503 16.024C123.071 15.608 122.351 15.4 121.343 15.4H119.039V20.2ZM128.519 22C128.359 22 128.223 21.952 128.111 21.856C128.015 21.744 127.967 21.608 127.967 21.448V10.072C127.967 9.912 128.015 9.784 128.111 9.688C128.223 9.576 128.359 9.52 128.519 9.52H129.671C129.831 9.52 129.959 9.576 130.055 9.688C130.167 9.784 130.223 9.912 130.223 10.072V21.448C130.223 21.608 130.167 21.744 130.055 21.856C129.959 21.952 129.831 22 129.671 22H128.519ZM139.079 22.24C137.847 22.24 136.815 22.008 135.983 21.544C135.167 21.064 134.543 20.392 134.111 19.528C133.695 18.648 133.471 17.632 133.439 16.48C133.423 16 133.415 15.52 133.415 15.04C133.415 14.56 133.423 14.08 133.439 13.6C133.439 12.144 133.559 10.936 133.799 9.976C134.039 9.016 134.399 8.232 134.879 7.624C135.375 7 135.999 6.488 136.751 6.088C137.503 5.688 138.391 5.344 139.415 5.056C140.439 4.752 141.607 4.432 142.919 4.096C143.063 4.064 143.199 4.088 143.327 4.168C143.471 4.248 143.551 4.36 143.567 4.504L143.759 5.488C143.791 5.632 143.767 5.76 143.687 5.872C143.623 5.984 143.519 6.056 143.375 6.088C142.175 6.392 141.127 6.656 140.231 6.88C139.335 7.104 138.583 7.368 137.975 7.672C137.367 7.96 136.879 8.336 136.511 8.8C136.143 9.264 135.887 9.88 135.743 10.648C135.615 11.416 135.575 12.4 135.623 13.6L135.095 13.384C135.175 12.792 135.423 12.256 135.839 11.776C136.271 11.28 136.807 10.88 137.447 10.576C138.087 10.272 138.767 10.12 139.487 10.12C140.591 10.12 141.519 10.352 142.271 10.816C143.039 11.28 143.623 11.912 144.023 12.712C144.439 13.512 144.671 14.432 144.719 15.472C144.751 16.016 144.751 16.488 144.719 16.888C144.671 17.928 144.431 18.856 143.999 19.672C143.567 20.472 142.943 21.104 142.127 21.568C141.311 22.016 140.295 22.24 139.079 22.24ZM139.079 20.464C140.087 20.464 140.887 20.152 141.479 19.528C142.071 18.904 142.383 17.992 142.415 16.792C142.431 16.632 142.439 16.448 142.439 16.24C142.439 16.032 142.431 15.816 142.415 15.592C142.383 14.376 142.071 13.456 141.479 12.832C140.903 12.208 140.175 11.896 139.295 11.896C138.287 11.896 137.455 12.208 136.799 12.832C136.143 13.456 135.791 14.376 135.743 15.592C135.727 15.816 135.719 16.032 135.719 16.24C135.719 16.448 135.727 16.632 135.743 16.792C135.791 17.992 136.111 18.904 136.703 19.528C137.295 20.152 138.087 20.464 139.079 20.464ZM148.321 26.56C148.161 26.56 148.025 26.504 147.913 26.392C147.817 26.296 147.769 26.168 147.769 26.008V10.072C147.769 9.912 147.817 9.784 147.913 9.688C148.025 9.576 148.161 9.52 148.321 9.52H149.425C149.585 9.52 149.713 9.576 149.809 9.688C149.921 9.784 149.977 9.912 149.977 10.072V11.128C150.361 10.6 150.873 10.16 151.513 9.808C152.153 9.456 152.953 9.28 153.913 9.28C154.809 9.28 155.569 9.432 156.193 9.736C156.833 10.04 157.353 10.456 157.753 10.984C158.169 11.512 158.481 12.112 158.689 12.784C158.897 13.456 159.009 14.176 159.025 14.944C159.041 15.2 159.049 15.472 159.049 15.76C159.049 16.048 159.041 16.32 159.025 16.576C159.009 17.328 158.897 18.048 158.689 18.736C158.481 19.408 158.169 20.008 157.753 20.536C157.353 21.048 156.833 21.464 156.193 21.784C155.569 22.088 154.809 22.24 153.913 22.24C152.985 22.24 152.201 22.072 151.561 21.736C150.937 21.384 150.425 20.952 150.025 20.44V26.008C150.025 26.168 149.977 26.296 149.881 26.392C149.785 26.504 149.649 26.56 149.473 26.56H148.321ZM153.409 20.296C154.241 20.296 154.889 20.12 155.353 19.768C155.833 19.4 156.177 18.928 156.385 18.352C156.593 17.76 156.713 17.128 156.745 16.456C156.761 15.992 156.761 15.528 156.745 15.064C156.713 14.392 156.593 13.768 156.385 13.192C156.177 12.6 155.833 12.128 155.353 11.776C154.889 11.408 154.241 11.224 153.409 11.224C152.625 11.224 151.985 11.408 151.489 11.776C151.009 12.144 150.649 12.616 150.409 13.192C150.185 13.752 150.057 14.328 150.025 14.92C150.009 15.176 150.001 15.48 150.001 15.832C150.001 16.184 150.009 16.496 150.025 16.768C150.041 17.328 150.169 17.88 150.409 18.424C150.665 18.968 151.041 19.416 151.537 19.768C152.033 20.12 152.657 20.296 153.409 20.296ZM165.522 22.24C164.722 22.24 163.994 22.08 163.338 21.76C162.682 21.44 162.154 21.008 161.754 20.464C161.354 19.92 161.154 19.304 161.154 18.616C161.154 17.512 161.602 16.632 162.498 15.976C163.394 15.32 164.562 14.888 166.002 14.68L169.578 14.176V13.48C169.578 12.712 169.354 12.112 168.906 11.68C168.474 11.248 167.762 11.032 166.77 11.032C166.05 11.032 165.466 11.176 165.018 11.464C164.586 11.752 164.282 12.12 164.106 12.568C164.01 12.808 163.842 12.928 163.602 12.928H162.522C162.346 12.928 162.21 12.88 162.114 12.784C162.034 12.672 161.994 12.544 161.994 12.4C161.994 12.16 162.082 11.864 162.258 11.512C162.45 11.16 162.738 10.816 163.122 10.48C163.506 10.144 163.994 9.864 164.586 9.64C165.194 9.4 165.93 9.28 166.794 9.28C167.754 9.28 168.562 9.408 169.218 9.664C169.874 9.904 170.386 10.232 170.754 10.648C171.138 11.064 171.41 11.536 171.57 12.064C171.746 12.592 171.834 13.128 171.834 13.672V21.448C171.834 21.608 171.778 21.744 171.666 21.856C171.57 21.952 171.442 22 171.282 22H170.178C170.002 22 169.866 21.952 169.77 21.856C169.674 21.744 169.626 21.608 169.626 21.448V20.416C169.418 20.704 169.138 20.992 168.786 21.28C168.434 21.552 167.994 21.784 167.466 21.976C166.938 22.152 166.29 22.24 165.522 22.24ZM166.026 20.44C166.682 20.44 167.282 20.304 167.826 20.032C168.37 19.744 168.794 19.304 169.098 18.712C169.418 18.12 169.578 17.376 169.578 16.48V15.808L166.794 16.216C165.658 16.376 164.802 16.648 164.226 17.032C163.65 17.4 163.362 17.872 163.362 18.448C163.362 18.896 163.49 19.272 163.746 19.576C164.018 19.864 164.354 20.08 164.754 20.224C165.17 20.368 165.594 20.44 166.026 20.44ZM174.684 22C174.524 22 174.388 21.944 174.276 21.832C174.164 21.72 174.108 21.584 174.108 21.424V20.536C174.108 20.2 174.276 20.024 174.612 20.008C175.108 19.992 175.524 19.76 175.86 19.312C176.196 18.848 176.452 18.12 176.628 17.128C176.804 16.12 176.892 14.792 176.892 13.144V10.072C176.892 9.912 176.94 9.784 177.036 9.688C177.148 9.576 177.284 9.52 177.444 9.52H185.076C185.236 9.52 185.364 9.576 185.46 9.688C185.572 9.784 185.628 9.912 185.628 10.072V21.448C185.628 21.608 185.572 21.744 185.46 21.856C185.364 21.952 185.236 22 185.076 22H183.924C183.764 22 183.636 21.952 183.54 21.856C183.444 21.744 183.396 21.608 183.396 21.448V11.44H179.076V13.408C179.076 14.944 178.988 16.264 178.812 17.368C178.636 18.456 178.364 19.344 177.996 20.032C177.644 20.704 177.188 21.2 176.628 21.52C176.084 21.84 175.436 22 174.684 22ZM189.734 22C189.59 22 189.462 21.952 189.35 21.856C189.254 21.744 189.206 21.624 189.206 21.496V10.072C189.206 9.912 189.254 9.784 189.35 9.688C189.462 9.576 189.598 9.52 189.758 9.52H190.91C191.07 9.52 191.198 9.576 191.294 9.688C191.39 9.784 191.438 9.912 191.438 10.072V20.248L190.814 19.6L198.086 9.88C198.166 9.784 198.254 9.704 198.35 9.64C198.446 9.56 198.566 9.52 198.71 9.52H199.814C199.942 9.52 200.054 9.568 200.15 9.664C200.262 9.76 200.318 9.872 200.318 10V21.448C200.318 21.608 200.262 21.744 200.15 21.856C200.054 21.952 199.926 22 199.766 22H198.638C198.462 22 198.326 21.952 198.23 21.856C198.134 21.744 198.086 21.608 198.086 21.448V11.872L198.758 11.848L191.438 21.64C191.374 21.72 191.294 21.8 191.198 21.88C191.102 21.96 190.974 22 190.814 22H189.734ZM207.887 18.064C207.743 18.064 207.623 18.024 207.527 17.944C207.431 17.848 207.383 17.72 207.383 17.56C207.383 17.4 207.383 17.24 207.383 17.08C207.383 16.92 207.383 16.76 207.383 16.6C207.415 15.912 207.567 15.304 207.839 14.776C208.111 14.248 208.439 13.768 208.823 13.336C209.223 12.904 209.623 12.496 210.023 12.112C210.423 11.712 210.759 11.312 211.031 10.912C211.319 10.512 211.495 10.088 211.559 9.64C211.623 9.064 211.511 8.584 211.223 8.2C210.935 7.8 210.543 7.496 210.047 7.288C209.551 7.08 209.039 6.976 208.511 6.976C207.663 6.976 206.935 7.2 206.327 7.648C205.735 8.08 205.343 8.816 205.151 9.856C205.103 10.048 205.023 10.184 204.911 10.264C204.799 10.344 204.671 10.384 204.527 10.384H203.375C203.231 10.384 203.103 10.336 202.991 10.24C202.895 10.144 202.847 10.016 202.847 9.856C202.863 9.2 203.007 8.576 203.279 7.984C203.551 7.392 203.935 6.872 204.431 6.424C204.943 5.976 205.543 5.624 206.231 5.368C206.935 5.096 207.719 4.96 208.583 4.96C209.559 4.96 210.391 5.096 211.079 5.368C211.783 5.624 212.343 5.976 212.759 6.424C213.191 6.856 213.503 7.336 213.695 7.864C213.887 8.392 213.967 8.92 213.935 9.448C213.887 10.088 213.727 10.664 213.455 11.176C213.183 11.672 212.855 12.136 212.471 12.568C212.087 12.984 211.695 13.4 211.295 13.816C210.911 14.216 210.575 14.64 210.287 15.088C210.015 15.52 209.863 15.992 209.831 16.504C209.815 16.68 209.799 16.856 209.783 17.032C209.783 17.192 209.783 17.352 209.783 17.512C209.751 17.688 209.687 17.824 209.591 17.92C209.495 18.016 209.359 18.064 209.183 18.064H207.887ZM207.695 22C207.535 22 207.399 21.952 207.287 21.856C207.191 21.744 207.143 21.608 207.143 21.448V19.984C207.143 19.824 207.191 19.696 207.287 19.6C207.399 19.488 207.535 19.432 207.695 19.432H209.255C209.431 19.432 209.567 19.488 209.663 19.6C209.775 19.696 209.831 19.824 209.831 19.984V21.448C209.831 21.608 209.775 21.744 209.663 21.856C209.567 21.952 209.431 22 209.255 22H207.695ZM223.328 22C223.152 22 223.016 21.952 222.92 21.856C222.824 21.744 222.776 21.608 222.776 21.448V5.776C222.776 5.6 222.824 5.464 222.92 5.368C223.016 5.256 223.152 5.2 223.328 5.2H235.16C235.336 5.2 235.472 5.256 235.568 5.368C235.68 5.464 235.736 5.6 235.736 5.776V21.448C235.736 21.608 235.68 21.744 235.568 21.856C235.472 21.952 235.336 22 235.16 22H233.936C233.776 22 233.64 21.952 233.528 21.856C233.432 21.744 233.384 21.608 233.384 21.448V7.36H225.128V21.448C225.128 21.608 225.072 21.744 224.96 21.856C224.864 21.952 224.728 22 224.552 22H223.328ZM244.685 22.24C243.469 22.24 242.453 22.008 241.637 21.544C240.821 21.08 240.197 20.44 239.765 19.624C239.333 18.792 239.093 17.848 239.045 16.792C239.029 16.52 239.021 16.176 239.021 15.76C239.021 15.328 239.029 14.984 239.045 14.728C239.093 13.656 239.333 12.712 239.765 11.896C240.213 11.08 240.845 10.44 241.661 9.976C242.477 9.512 243.485 9.28 244.685 9.28C245.885 9.28 246.893 9.512 247.709 9.976C248.525 10.44 249.149 11.08 249.581 11.896C250.029 12.712 250.277 13.656 250.325 14.728C250.341 14.984 250.349 15.328 250.349 15.76C250.349 16.176 250.341 16.52 250.325 16.792C250.277 17.848 250.037 18.792 249.605 19.624C249.173 20.44 248.549 21.08 247.733 21.544C246.917 22.008 245.901 22.24 244.685 22.24ZM244.685 20.392C245.677 20.392 246.469 20.08 247.061 19.456C247.653 18.816 247.973 17.888 248.021 16.672C248.037 16.432 248.045 16.128 248.045 15.76C248.045 15.392 248.037 15.088 248.021 14.848C247.973 13.632 247.653 12.712 247.061 12.088C246.469 11.448 245.677 11.128 244.685 11.128C243.693 11.128 242.893 11.448 242.285 12.088C241.693 12.712 241.381 13.632 241.349 14.848C241.333 15.088 241.325 15.392 241.325 15.76C241.325 16.128 241.333 16.432 241.349 16.672C241.381 17.888 241.693 18.816 242.285 19.456C242.893 20.08 243.693 20.392 244.685 20.392ZM257.698 22.24C256.754 22.24 255.954 22.128 255.298 21.904C254.658 21.664 254.138 21.368 253.738 21.016C253.354 20.648 253.074 20.272 252.898 19.888C252.722 19.488 252.626 19.12 252.61 18.784C252.61 18.64 252.658 18.528 252.754 18.448C252.85 18.352 252.962 18.304 253.09 18.304H254.218C254.362 18.304 254.482 18.344 254.578 18.424C254.674 18.488 254.746 18.608 254.794 18.784C254.986 19.392 255.354 19.816 255.898 20.056C256.442 20.296 257.106 20.416 257.89 20.416C258.402 20.416 258.874 20.352 259.306 20.224C259.738 20.08 260.074 19.856 260.314 19.552C260.57 19.248 260.698 18.872 260.698 18.424C260.698 17.768 260.506 17.272 260.122 16.936C259.754 16.6 259.178 16.432 258.394 16.432H257.074C256.914 16.432 256.786 16.384 256.69 16.288C256.594 16.192 256.546 16.064 256.546 15.904V15.256C256.546 15.112 256.594 14.992 256.69 14.896C256.786 14.784 256.914 14.728 257.074 14.728H258.25C258.906 14.728 259.41 14.6 259.762 14.344C260.114 14.088 260.29 13.68 260.29 13.12C260.29 12.784 260.21 12.464 260.05 12.16C259.89 11.856 259.618 11.608 259.234 11.416C258.866 11.208 258.354 11.104 257.698 11.104C256.77 11.104 256.114 11.264 255.73 11.584C255.362 11.888 255.098 12.344 254.938 12.952C254.874 13.128 254.794 13.248 254.698 13.312C254.618 13.376 254.498 13.408 254.338 13.408H253.258C253.114 13.408 252.994 13.368 252.898 13.288C252.802 13.208 252.754 13.096 252.754 12.952C252.77 12.472 252.874 12.016 253.066 11.584C253.274 11.152 253.578 10.76 253.978 10.408C254.394 10.056 254.906 9.784 255.514 9.592C256.138 9.384 256.866 9.28 257.698 9.28C258.898 9.28 259.842 9.464 260.53 9.832C261.234 10.2 261.73 10.656 262.018 11.2C262.322 11.728 262.474 12.256 262.474 12.784C262.474 13.408 262.37 13.928 262.162 14.344C261.97 14.76 261.586 15.112 261.01 15.4C261.73 15.672 262.226 16.08 262.498 16.624C262.77 17.168 262.914 17.8 262.93 18.52C262.946 19.352 262.722 20.04 262.258 20.584C261.81 21.128 261.194 21.544 260.41 21.832C259.626 22.104 258.722 22.24 257.698 22.24ZM266.187 22C266.027 22 265.891 21.952 265.779 21.856C265.683 21.744 265.635 21.608 265.635 21.448V10.072C265.635 9.912 265.683 9.784 265.779 9.688C265.891 9.576 266.027 9.52 266.187 9.52H271.179C272.683 9.52 273.811 9.824 274.563 10.432C275.331 11.04 275.715 11.856 275.715 12.88C275.715 13.6 275.579 14.144 275.307 14.512C275.035 14.88 274.651 15.192 274.155 15.448C274.763 15.704 275.219 16.12 275.523 16.696C275.843 17.256 276.003 17.84 276.003 18.448C276.003 19.6 275.595 20.48 274.779 21.088C273.963 21.696 272.827 22 271.371 22H266.187ZM267.843 20.248H271.179C271.947 20.248 272.563 20.104 273.027 19.816C273.507 19.512 273.747 19.056 273.747 18.448C273.747 17.808 273.531 17.344 273.099 17.056C272.667 16.752 272.027 16.6 271.179 16.6H267.843V20.248ZM267.843 14.824H271.035C271.803 14.824 272.411 14.656 272.859 14.32C273.323 13.984 273.555 13.512 273.555 12.904C273.555 12.28 273.323 11.856 272.859 11.632C272.411 11.392 271.803 11.272 271.035 11.272H267.843V14.824ZM284.201 22.24C282.985 22.24 281.969 22.008 281.153 21.544C280.337 21.08 279.713 20.44 279.281 19.624C278.849 18.792 278.609 17.848 278.561 16.792C278.545 16.52 278.537 16.176 278.537 15.76C278.537 15.328 278.545 14.984 278.561 14.728C278.609 13.656 278.849 12.712 279.281 11.896C279.729 11.08 280.361 10.44 281.177 9.976C281.993 9.512 283.001 9.28 284.201 9.28C285.401 9.28 286.409 9.512 287.225 9.976C288.041 10.44 288.665 11.08 289.097 11.896C289.545 12.712 289.793 13.656 289.841 14.728C289.857 14.984 289.865 15.328 289.865 15.76C289.865 16.176 289.857 16.52 289.841 16.792C289.793 17.848 289.553 18.792 289.121 19.624C288.689 20.44 288.065 21.08 287.249 21.544C286.433 22.008 285.417 22.24 284.201 22.24ZM284.201 20.392C285.193 20.392 285.985 20.08 286.577 19.456C287.169 18.816 287.489 17.888 287.537 16.672C287.553 16.432 287.561 16.128 287.561 15.76C287.561 15.392 287.553 15.088 287.537 14.848C287.489 13.632 287.169 12.712 286.577 12.088C285.985 11.448 285.193 11.128 284.201 11.128C283.209 11.128 282.409 11.448 281.801 12.088C281.209 12.712 280.897 13.632 280.865 14.848C280.849 15.088 280.84 15.392 280.84 15.76C280.84 16.128 280.849 16.432 280.865 16.672C280.897 17.888 281.209 18.816 281.801 19.456C282.409 20.08 283.209 20.392 284.201 20.392ZM293.422 22C293.262 22 293.126 21.952 293.014 21.856C292.918 21.744 292.87 21.608 292.87 21.448V10.072C292.87 9.912 292.918 9.784 293.014 9.688C293.126 9.576 293.262 9.52 293.422 9.52H294.574C294.734 9.52 294.862 9.576 294.958 9.688C295.054 9.784 295.102 9.912 295.102 10.072V14.68H301.654V10.072C301.654 9.912 301.702 9.784 301.798 9.688C301.91 9.576 302.046 9.52 302.206 9.52H303.334C303.494 9.52 303.622 9.576 303.718 9.688C303.83 9.784 303.886 9.912 303.886 10.072V21.448C303.886 21.608 303.83 21.744 303.718 21.856C303.622 21.952 303.494 22 303.334 22H302.206C302.046 22 301.91 21.952 301.798 21.856C301.702 21.744 301.654 21.608 301.654 21.448V16.6H295.102V21.448C295.102 21.608 295.054 21.744 294.958 21.856C294.862 21.952 294.734 22 294.574 22H293.422ZM308.023 22C307.879 22 307.751 21.952 307.639 21.856C307.543 21.744 307.495 21.624 307.495 21.496V10.072C307.495 9.912 307.543 9.784 307.639 9.688C307.751 9.576 307.887 9.52 308.047 9.52H309.199C309.359 9.52 309.487 9.576 309.583 9.688C309.679 9.784 309.727 9.912 309.727 10.072V20.248L309.103 19.6L316.375 9.88C316.455 9.784 316.543 9.704 316.639 9.64C316.735 9.56 316.855 9.52 316.999 9.52H318.103C318.231 9.52 318.343 9.568 318.439 9.664C318.551 9.76 318.607 9.872 318.607 10V21.448C318.607 21.608 318.551 21.744 318.439 21.856C318.343 21.952 318.215 22 318.055 22H316.927C316.751 22 316.615 21.952 316.519 21.856C316.423 21.744 316.375 21.608 316.375 21.448V11.872L317.047 11.848L309.727 21.64C309.663 21.72 309.583 21.8 309.487 21.88C309.391 21.96 309.263 22 309.103 22H308.023ZM325.936 22C325.776 22 325.64 21.952 325.528 21.856C325.432 21.744 325.384 21.608 325.384 21.448V11.44H321.208C321.048 11.44 320.912 11.392 320.8 11.296C320.704 11.184 320.656 11.048 320.656 10.888V10.072C320.656 9.912 320.704 9.784 320.8 9.688C320.912 9.576 321.048 9.52 321.208 9.52H331.768C331.928 9.52 332.056 9.576 332.152 9.688C332.264 9.784 332.32 9.912 332.32 10.072V10.888C332.32 11.048 332.264 11.184 332.152 11.296C332.056 11.392 331.928 11.44 331.768 11.44H327.592V21.448C327.592 21.608 327.544 21.744 327.448 21.856C327.352 21.952 327.216 22 327.04 22H325.936ZM339.369 22.24C337.721 22.24 336.409 21.736 335.433 20.728C334.457 19.704 333.921 18.312 333.825 16.552C333.809 16.344 333.801 16.08 333.801 15.76C333.801 15.424 333.809 15.152 333.825 14.944C333.889 13.808 334.153 12.816 334.617 11.968C335.081 11.104 335.713 10.44 336.513 9.976C337.329 9.512 338.281 9.28 339.369 9.28C340.585 9.28 341.601 9.536 342.417 10.048C343.249 10.56 343.881 11.288 344.313 12.232C344.745 13.176 344.961 14.28 344.961 15.544V15.952C344.961 16.128 344.905 16.264 344.793 16.36C344.697 16.456 344.569 16.504 344.409 16.504H336.105C336.105 16.52 336.105 16.552 336.105 16.6C336.105 16.648 336.105 16.688 336.105 16.72C336.137 17.376 336.281 17.992 336.537 18.568C336.793 19.128 337.161 19.584 337.641 19.936C338.121 20.288 338.697 20.464 339.369 20.464C339.945 20.464 340.425 20.376 340.809 20.2C341.193 20.024 341.505 19.832 341.745 19.624C341.985 19.4 342.145 19.232 342.225 19.12C342.369 18.912 342.481 18.792 342.561 18.76C342.641 18.712 342.769 18.688 342.945 18.688H344.097C344.257 18.688 344.385 18.736 344.481 18.832C344.593 18.912 344.641 19.032 344.625 19.192C344.609 19.432 344.481 19.728 344.241 20.08C344.001 20.416 343.657 20.752 343.209 21.088C342.761 21.424 342.217 21.704 341.577 21.928C340.937 22.136 340.201 22.24 339.369 22.24ZM336.105 14.848H342.681V14.776C342.681 14.056 342.545 13.416 342.273 12.856C342.017 12.296 341.641 11.856 341.145 11.536C340.649 11.2 340.057 11.032 339.369 11.032C338.681 11.032 338.089 11.2 337.593 11.536C337.113 11.856 336.745 12.296 336.489 12.856C336.233 13.416 336.105 14.056 336.105 14.776V14.848ZM354.266 22C354.106 22 353.97 21.952 353.858 21.856C353.762 21.744 353.714 21.608 353.714 21.448V10.072C353.714 9.912 353.762 9.784 353.858 9.688C353.97 9.576 354.106 9.52 354.266 9.52H355.418C355.578 9.52 355.706 9.576 355.802 9.688C355.898 9.784 355.946 9.912 355.946 10.072V14.68H362.498V10.072C362.498 9.912 362.546 9.784 362.642 9.688C362.754 9.576 362.89 9.52 363.05 9.52H364.178C364.338 9.52 364.466 9.576 364.562 9.688C364.674 9.784 364.73 9.912 364.73 10.072V21.448C364.73 21.608 364.674 21.744 364.562 21.856C364.466 21.952 364.338 22 364.178 22H363.05C362.89 22 362.754 21.952 362.642 21.856C362.546 21.744 362.498 21.608 362.498 21.448V16.6H355.946V21.448C355.946 21.608 355.898 21.744 355.802 21.856C355.706 21.952 355.578 22 355.418 22H354.266ZM371.819 22.24C371.019 22.24 370.291 22.08 369.635 21.76C368.979 21.44 368.451 21.008 368.051 20.464C367.651 19.92 367.451 19.304 367.451 18.616C367.451 17.512 367.899 16.632 368.795 15.976C369.691 15.32 370.859 14.888 372.299 14.68L375.875 14.176V13.48C375.875 12.712 375.651 12.112 375.203 11.68C374.771 11.248 374.059 11.032 373.067 11.032C372.347 11.032 371.763 11.176 371.315 11.464C370.883 11.752 370.579 12.12 370.403 12.568C370.307 12.808 370.139 12.928 369.899 12.928H368.819C368.643 12.928 368.507 12.88 368.411 12.784C368.331 12.672 368.291 12.544 368.291 12.4C368.291 12.16 368.379 11.864 368.555 11.512C368.747 11.16 369.035 10.816 369.419 10.48C369.803 10.144 370.291 9.864 370.883 9.64C371.491 9.4 372.227 9.28 373.091 9.28C374.051 9.28 374.859 9.408 375.515 9.664C376.171 9.904 376.683 10.232 377.051 10.648C377.435 11.064 377.707 11.536 377.867 12.064C378.043 12.592 378.131 13.128 378.131 13.672V21.448C378.131 21.608 378.075 21.744 377.963 21.856C377.867 21.952 377.739 22 377.579 22H376.475C376.299 22 376.163 21.952 376.067 21.856C375.971 21.744 375.923 21.608 375.923 21.448V20.416C375.715 20.704 375.435 20.992 375.083 21.28C374.731 21.552 374.291 21.784 373.763 21.976C373.235 22.152 372.587 22.24 371.819 22.24ZM372.323 20.44C372.979 20.44 373.579 20.304 374.123 20.032C374.667 19.744 375.091 19.304 375.395 18.712C375.715 18.12 375.875 17.376 375.875 16.48V15.808L373.091 16.216C371.955 16.376 371.099 16.648 370.523 17.032C369.947 17.4 369.659 17.872 369.659 18.448C369.659 18.896 369.787 19.272 370.043 19.576C370.315 19.864 370.651 20.08 371.051 20.224C371.467 20.368 371.891 20.44 372.323 20.44ZM382.109 22C381.949 22 381.821 21.952 381.725 21.856C381.629 21.76 381.581 21.632 381.581 21.472V9.976C381.581 9.848 381.629 9.744 381.725 9.664C381.837 9.568 381.949 9.52 382.061 9.52H383.285C383.541 9.52 383.741 9.648 383.885 9.904L387.965 17.536L392.069 9.904C392.213 9.648 392.413 9.52 392.669 9.52H393.869C393.997 9.52 394.109 9.568 394.205 9.664C394.301 9.744 394.349 9.848 394.349 9.976V21.472C394.349 21.632 394.301 21.76 394.205 21.856C394.109 21.952 393.989 22 393.845 22H392.669C392.509 22 392.381 21.952 392.285 21.856C392.189 21.76 392.141 21.632 392.141 21.472V11.896L392.981 11.992L389.069 19.384C388.989 19.544 388.893 19.688 388.781 19.816C388.669 19.944 388.501 20.008 388.277 20.008H387.653C387.445 20.008 387.285 19.944 387.173 19.816C387.061 19.688 386.957 19.544 386.861 19.384L383.069 12.352L383.813 12.28V21.472C383.813 21.632 383.765 21.76 383.669 21.856C383.573 21.952 383.445 22 383.285 22H382.109ZM398.54 18.016C398.38 18.016 398.244 17.968 398.132 17.872C398.036 17.76 397.988 17.624 397.988 17.464V5.752C397.988 5.592 398.036 5.464 398.132 5.368C398.244 5.256 398.38 5.2 398.54 5.2H399.668C399.828 5.2 399.956 5.256 400.052 5.368C400.148 5.464 400.196 5.592 400.196 5.752V17.464C400.196 17.624 400.148 17.76 400.052 17.872C399.956 17.968 399.828 18.016 399.668 18.016H398.54ZM398.324 22C398.164 22 398.028 21.952 397.916 21.856C397.82 21.744 397.772 21.608 397.772 21.448V19.936C397.772 19.76 397.82 19.624 397.916 19.528C398.028 19.416 398.164 19.36 398.324 19.36H399.86C400.02 19.36 400.148 19.416 400.244 19.528C400.356 19.624 400.412 19.76 400.412 19.936V21.448C400.412 21.608 400.356 21.744 400.244 21.856C400.148 21.952 400.02 22 399.86 22H398.324Z" fill="white"/>
<path d="M1 192L15.9203 183.203L0.841794 174.68L1 192ZM3.84335 190.085C4.18911 189.51 4.53814 188.944 4.89041 188.387L2.35481 186.784C1.99054 187.36 1.62983 187.945 1.27273 188.538L3.84335 190.085ZM5.95685 186.742C6.31552 186.202 6.67738 185.671 7.04237 185.148L4.58276 183.431C4.20444 183.972 3.82958 184.523 3.45824 185.081L5.95685 186.742ZM8.14668 183.606C8.54062 183.069 8.93803 182.542 9.33886 182.023L6.96603 180.188C6.54957 180.726 6.13691 181.274 5.7281 181.831L8.14668 183.606ZM10.5851 180.456C11.0041 179.943 11.4266 179.439 11.8526 178.945L9.58093 176.986C9.13727 177.5 8.69749 178.024 8.26165 178.558L10.5851 180.456ZM13.1411 177.492C13.5741 177.016 14.0105 176.55 14.4503 176.094L12.2889 174.013C11.83 174.49 11.3748 174.976 10.9235 175.471L13.1411 177.492ZM15.8103 174.72C16.2871 174.252 16.7678 173.794 17.2521 173.346L15.2153 171.144C14.709 171.612 14.2068 172.09 13.7087 172.579L15.8103 174.72ZM18.7164 172.032C19.2081 171.604 19.7036 171.185 20.2027 170.777L18.3014 168.456C17.7791 168.884 17.2607 169.322 16.7463 169.77L18.7164 172.032ZM21.7107 169.578C22.2241 169.183 22.7412 168.797 23.2619 168.421L21.5044 165.989C20.9591 166.384 20.4176 166.788 19.88 167.202L21.7107 169.578ZM24.8784 167.29C25.421 166.923 25.9674 166.566 26.5175 166.218L24.914 163.682C24.3379 164.046 23.7657 164.421 23.1974 164.805L24.8784 167.29ZM28.1787 165.202C28.7361 164.873 29.2971 164.554 29.8617 164.243L28.4154 161.615C27.8245 161.94 27.2372 162.274 26.6536 162.619L28.1787 165.202ZM31.5828 163.329C32.1648 163.032 32.7505 162.743 33.3398 162.463L32.0536 159.753C31.4376 160.045 30.8251 160.347 30.2162 160.659L31.5828 163.329ZM35.1183 161.651C35.7147 161.389 36.3146 161.136 36.9179 160.891L35.7907 158.111C35.1611 158.366 34.5348 158.631 33.9119 158.904L35.1183 161.651ZM38.7383 160.183C39.3478 159.955 39.9607 159.736 40.5769 159.525L39.6044 156.687C38.9629 156.907 38.3244 157.135 37.6891 157.372L38.7383 160.183ZM42.4348 158.916C43.0574 158.721 43.6832 158.533 44.3122 158.354L43.4887 155.469C42.8355 155.656 42.1852 155.85 41.5377 156.053L42.4348 158.916ZM46.2085 157.838C46.8428 157.674 47.4801 157.517 48.1205 157.368L47.4385 154.446C46.7753 154.601 46.1147 154.763 45.4568 154.934L46.2085 157.838ZM50.0255 156.946C50.6634 156.812 51.3041 156.686 51.9475 156.565L51.397 153.616C50.7324 153.74 50.0701 153.872 49.4103 154.01L50.0255 156.946ZM53.8861 156.225C54.535 156.118 55.1866 156.017 55.8408 155.923L55.4129 152.954C54.7391 153.051 54.0674 153.155 53.3981 153.265L53.8861 156.225ZM57.798 155.661C58.4433 155.58 59.0911 155.506 59.7411 155.437L59.4252 152.454C58.7573 152.524 58.0915 152.601 57.4276 152.684L57.798 155.661ZM61.6982 155.247C62.3529 155.189 63.0097 155.137 63.6688 155.09L63.455 152.098C62.7797 152.146 62.1061 152.199 61.4345 152.259L61.6982 155.247ZM65.6524 154.964C66.3093 154.928 66.9683 154.896 67.6292 154.87L67.5082 151.872C66.8326 151.899 66.1587 151.932 65.4864 151.969L65.6524 154.964ZM69.5907 154.805C70.2464 154.787 70.904 154.775 71.5633 154.766L71.525 151.766C70.8526 151.775 70.1816 151.788 69.5121 151.806L69.5907 154.805ZM73.5465 154.754C74.2092 154.754 74.8737 154.758 75.5397 154.766L75.5761 151.766C74.8983 151.758 74.2217 151.754 73.5465 151.754L73.5465 154.754ZM77.5249 154.801C78.1796 154.817 78.8358 154.836 79.4934 154.858L79.5956 151.86C78.9277 151.837 78.2609 151.818 77.5953 151.802L77.5249 154.801ZM81.4703 154.936C82.1306 154.965 82.7922 154.997 83.4551 155.033L83.6155 152.037C82.9435 152.001 82.2725 151.968 81.6025 151.938L81.4703 154.936ZM85.4475 155.148C86.1094 155.189 86.7724 155.234 87.4366 155.281L87.648 152.288C86.976 152.241 86.3047 152.196 85.6343 152.154L85.4475 155.148ZM89.407 155.427C90.0649 155.479 90.7237 155.533 91.3835 155.589L91.6389 152.6C90.9723 152.543 90.3064 152.489 89.6413 152.437L89.407 155.427ZM93.3656 155.765C94.0272 155.826 94.6896 155.889 95.3528 155.954L95.6459 152.969C94.9769 152.903 94.3084 152.839 93.6406 152.778L93.3656 155.765ZM97.3429 156.155C97.9995 156.223 98.6568 156.293 99.3147 156.365L99.6392 153.383C98.9766 153.31 98.3143 153.24 97.6525 153.171L97.3429 156.155ZM101.29 156.585C101.95 156.659 102.609 156.736 103.27 156.813L103.62 153.834C102.956 153.756 102.292 153.679 101.628 153.604L101.29 156.585ZM105.252 157.05C105.913 157.13 106.575 157.211 107.237 157.294L107.607 154.317C106.942 154.234 106.277 154.152 105.613 154.072L105.252 157.05ZM109.214 157.543C109.873 157.626 110.532 157.711 111.192 157.796L111.577 154.821C110.915 154.735 110.254 154.651 109.593 154.566L109.214 157.543ZM113.171 158.054C113.83 158.141 114.49 158.228 115.151 158.316L115.545 155.342C114.884 155.254 114.222 155.167 113.561 155.08L113.171 158.054ZM117.131 158.579C117.792 158.668 118.453 158.756 119.113 158.845L119.512 155.871C118.851 155.783 118.19 155.694 117.529 155.606L117.131 158.579ZM121.096 159.111C121.757 159.199 122.418 159.288 123.079 159.376L123.476 156.403C122.816 156.314 122.156 156.226 121.495 156.137L121.096 159.111ZM125.06 159.641C125.721 159.728 126.381 159.816 127.041 159.903L127.433 156.928C126.774 156.842 126.115 156.754 125.456 156.667L125.06 159.641ZM129.023 160.162C129.688 160.248 130.352 160.334 131.016 160.419L131.396 157.443C130.734 157.359 130.072 157.273 129.41 157.187L129.023 160.162ZM133.006 160.671C133.669 160.754 134.332 160.835 134.994 160.916L135.357 157.938C134.699 157.858 134.039 157.776 133.379 157.694L133.006 160.671ZM136.979 161.155C137.64 161.233 138.301 161.31 138.961 161.385L139.301 158.405C138.646 158.33 137.989 158.253 137.332 158.176L136.979 161.155ZM140.965 161.61C141.633 161.683 142.301 161.755 142.968 161.825L143.28 158.841C142.618 158.772 141.956 158.701 141.292 158.628L140.965 161.61ZM144.965 162.028C145.631 162.094 146.295 162.157 146.958 162.219L147.235 159.232C146.578 159.171 145.92 159.108 145.261 159.042L144.965 162.028ZM148.945 162.397C149.617 162.455 150.288 162.51 150.958 162.563L151.193 159.572C150.531 159.52 149.868 159.465 149.203 159.408L148.945 162.397ZM152.974 162.714C153.645 162.761 154.315 162.806 154.984 162.848L155.17 159.854C154.511 159.813 153.849 159.768 153.186 159.721L152.974 162.714ZM156.986 162.964C157.652 162.999 158.317 163.032 158.981 163.061L159.111 160.063C158.458 160.035 157.802 160.003 157.146 159.968L156.986 162.964ZM161.001 163.138C161.679 163.161 162.355 163.179 163.03 163.194L163.096 160.195C162.433 160.18 161.767 160.162 161.101 160.14L161.001 163.138ZM165.05 163.226C165.721 163.233 166.391 163.236 167.06 163.234L167.052 160.234C166.396 160.235 165.739 160.233 165.08 160.226L165.05 163.226ZM169.059 163.215C169.738 163.204 170.414 163.189 171.089 163.168L170.998 160.169C170.338 160.189 169.675 160.205 169.011 160.215L169.059 163.215ZM173.123 163.091C173.799 163.06 174.473 163.023 175.145 162.982L174.96 159.987C174.304 160.028 173.646 160.063 172.986 160.094L173.123 163.091ZM177.155 162.84C177.822 162.787 178.488 162.729 179.151 162.665L178.861 159.679C178.216 159.741 177.568 159.798 176.918 159.85L177.155 162.84ZM181.183 162.448C181.86 162.369 182.535 162.284 183.207 162.192L182.8 159.22C182.148 159.309 181.494 159.392 180.837 159.468L181.183 162.448ZM185.214 161.896C185.881 161.79 186.545 161.678 187.206 161.558L186.671 158.606C186.032 158.722 185.39 158.831 184.745 158.933L185.214 161.896ZM189.19 161.175C189.861 161.037 190.528 160.892 191.192 160.739L190.517 157.816C189.878 157.963 189.234 158.103 188.588 158.236L189.19 161.175ZM193.175 160.255C193.833 160.085 194.487 159.907 195.138 159.721L194.313 156.837C193.687 157.016 193.058 157.187 192.426 157.35L193.175 160.255ZM197.082 159.136C197.73 158.931 198.376 158.717 199.017 158.493L198.032 155.66C197.417 155.874 196.799 156.079 196.177 156.275L197.082 159.136ZM200.938 157.793C201.575 157.55 202.208 157.298 202.837 157.036L201.683 154.267C201.082 154.517 200.478 154.758 199.869 154.99L200.938 157.793ZM204.712 156.22C205.332 155.938 205.949 155.647 206.561 155.345L205.234 152.654C204.651 152.942 204.063 153.22 203.472 153.488L204.712 156.22ZM208.371 154.415C208.971 154.095 209.566 153.765 210.157 153.423L208.657 150.825C208.095 151.15 207.528 151.464 206.958 151.769L208.371 154.415ZM211.916 152.368C212.497 152.006 213.075 151.633 213.648 151.248L211.976 148.757C211.432 149.122 210.883 149.477 210.329 149.822L211.916 152.368ZM215.322 150.084C215.867 149.691 216.407 149.287 216.943 148.873L215.109 146.499C214.599 146.893 214.085 147.276 213.567 147.65L215.322 150.084ZM218.538 147.597C219.065 147.161 219.587 146.715 220.104 146.256L218.115 144.01C217.623 144.446 217.126 144.872 216.625 145.286L218.538 147.597ZM221.642 144.849C222.125 144.391 222.604 143.923 223.078 143.445L220.948 141.333C220.496 141.789 220.04 142.234 219.579 142.67L221.642 144.849ZM224.472 141.996C224.932 141.502 225.387 140.998 225.839 140.484L223.583 138.506C223.152 138.998 222.717 139.479 222.277 139.95L224.472 141.996ZM227.178 138.908C227.619 138.373 228.056 137.826 228.489 137.269L226.118 135.43C225.704 135.964 225.286 136.487 224.863 137L227.178 138.908ZM229.688 135.678C230.077 135.147 230.461 134.607 230.842 134.058L228.376 132.349C228.01 132.877 227.641 133.396 227.268 133.905L229.688 135.678ZM231.972 132.381C232.344 131.812 232.712 131.234 233.076 130.647L230.526 129.067C230.175 129.634 229.82 130.19 229.462 130.737L231.972 132.381ZM234.155 128.854C234.498 128.268 234.838 127.672 235.173 127.067L232.549 125.613C232.225 126.198 231.897 126.773 231.566 127.339L234.155 128.854ZM236.101 125.348C236.407 124.767 236.709 124.178 237.008 123.58L234.325 122.239C234.035 122.818 233.742 123.389 233.446 123.951L236.101 125.348ZM237.893 121.763C238.185 121.148 238.472 120.526 238.756 119.895L236.021 118.663C235.745 119.276 235.466 119.881 235.183 120.477L237.893 121.763ZM239.598 117.976C239.865 117.349 240.13 116.713 240.391 116.07L237.61 114.943C237.356 115.57 237.099 116.188 236.839 116.798L239.598 117.976ZM241.102 114.271C241.337 113.664 241.568 113.051 241.796 112.43L238.98 111.395C238.758 112 238.532 112.599 238.304 113.19L241.102 114.271ZM242.471 110.547C242.693 109.913 242.912 109.271 243.128 108.622L240.282 107.675C240.071 108.309 239.857 108.936 239.64 109.556L242.471 110.547ZM243.767 106.653C243.977 105.99 244.183 105.319 244.387 104.641L241.513 103.779C241.314 104.443 241.112 105.1 240.906 105.749L243.767 106.653ZM244.954 102.704C245.129 102.091 245.301 101.471 245.472 100.846L242.577 100.058C242.41 100.672 242.241 101.279 242.069 101.88L244.954 102.704ZM245.974 98.9532C246.14 98.3162 246.302 97.6734 246.462 97.0246L243.549 96.3061C243.392 96.9436 243.233 97.575 243.07 98.2003L245.974 98.9532ZM246.935 95.0603C247.09 94.3995 247.242 93.7327 247.392 93.0598L244.463 92.4079C244.316 93.0699 244.166 93.7257 244.014 94.3754L246.935 95.0603ZM247.833 91.0229C247.978 90.3379 248.12 89.6467 248.26 88.9493L245.318 88.3612C245.18 89.0481 245.041 89.7288 244.898 90.4032L247.833 91.0229ZM248.631 87.045C248.75 86.4175 248.867 85.7851 248.982 85.1478L246.03 84.6145C245.917 85.2429 245.801 85.8663 245.684 86.4848L248.631 87.045ZM249.322 83.2211C249.432 82.574 249.541 81.9218 249.648 81.2647L246.687 80.7836C246.582 81.4322 246.474 82.0757 246.365 82.7142L249.322 83.2211ZM249.962 79.2784C250.065 78.6112 250.165 77.9391 250.263 77.2619L247.294 76.8309C247.197 77.4999 247.098 78.1638 246.997 78.8226L249.962 79.2784ZM250.552 75.215C250.646 74.5276 250.738 73.8351 250.827 73.1375L247.852 72.7548C247.763 73.4445 247.672 74.1291 247.58 74.8084L250.552 75.215ZM251.084 71.0774C251.16 70.4496 251.234 69.8178 251.307 69.1819L248.326 68.8425C248.254 69.4716 248.181 70.0967 248.106 70.7176L251.084 71.0774ZM251.519 67.2618C251.588 66.6177 251.655 65.9694 251.721 65.3171L248.736 65.0173C248.671 65.6632 248.604 66.3049 248.536 66.9424L251.519 67.2618ZM251.912 63.3474C251.974 62.6867 252.034 62.0218 252.093 61.3527L249.104 61.0912C249.046 61.754 248.987 62.4126 248.925 63.0669L251.912 63.3474ZM252.263 59.3328C252.318 58.6553 252.371 57.9736 252.423 57.2876L249.431 57.0631C249.38 57.743 249.328 58.4186 249.273 59.09L252.263 59.3328ZM252.572 55.2169C252.62 54.5224 252.666 53.8237 252.71 53.1206L249.716 52.9317C249.672 53.6289 249.627 54.3218 249.579 55.0104L252.572 55.2169ZM252.832 51.1048C252.868 50.4718 252.903 49.8354 252.937 49.1955L249.941 49.0383C249.908 49.6732 249.873 50.3045 249.837 50.9324L252.832 51.1048ZM253.033 47.2656C253.064 46.6188 253.093 45.9686 253.121 45.3149L250.124 45.1873C250.096 45.8362 250.067 46.4815 250.037 47.1233L253.033 47.2656ZM253.2 43.3433C253.225 42.6826 253.249 42.0184 253.271 41.3507L250.272 41.2519C250.25 41.9149 250.227 42.5743 250.202 43.2302L253.2 43.3433ZM253.332 39.3371C253.351 38.6623 253.369 37.984 253.385 37.3022L250.386 37.2313C250.37 37.9085 250.352 38.5822 250.333 39.2523L253.332 39.3371ZM253.429 35.2461C253.442 34.5571 253.454 33.8646 253.464 33.1686L250.464 33.1246C250.454 33.8163 250.443 34.5043 250.43 35.1887L253.429 35.2461ZM253.49 31.0695C253.494 30.718 253.497 30.3655 253.5 30.0121L250.5 29.9879C250.497 30.3391 250.494 30.6893 250.49 31.0387L253.49 31.0695Z" fill="white"/>
</svg>
